<?xml version="1.0" encoding="UTF-8"?><svg id="Camada_2" xmlns="http://www.w3.org/2000/svg" viewBox="0 0 273.87 260.28"><defs><style>.cls-1{fill:#fff;stroke-width:0px;}</style></defs><g id="Camada_1-2"><path class="cls-1" d="M90.69,161.64c-.77-.96-1.4-1.73-2.02-2.5,24.58-26.03,71.04-26.75,96.62-.02-.61.76-1.23,1.53-2.03,2.52-12.93-12.49-28.42-18.83-46.27-18.83-17.79,0-33.24,6.28-46.31,18.83h0Z"/><path class="cls-1" d="M166.87,181.79c-.67.82-1.28,1.59-2.01,2.49-7.53-8.39-16.82-12.69-27.95-12.67-11.05.02-20.28,4.29-27.68,12.54-.24-.17-.44-.25-.57-.4-.5-.6-.99-1.21-1.47-1.81,12.74-16.76,43.33-19.42,59.68-.13h0Z"/><path class="cls-1" d="M123.87,155.08c2.47-.48,4.75-.93,7.29-1.42.26,1.26.5,2.4.78,3.72-2.47.54-4.8,1.06-7.15,1.58-.03,2.22.9,2.81,2.92,2.23,1.69-.49,3.46-.7,5.41-1.08.29,1.23.56,2.37.91,3.87-2.87.47-5.63,1.07-8.41,1.34-2.26.22-3.89-1.08-4.43-3.23-.91-3.65-1.6-7.36-2.34-11.05-.27-1.36.56-1.9,1.77-2.14,3.21-.63,6.4-1.29,9.85-2,.25,1.18.5,2.34.81,3.76-2.64.59-5.23,1.16-7.96,1.77.18.88.34,1.62.55,2.64h0Z"/><path class="cls-1" d="M102.7,157.29c1.14-.92,2.12-1.71,3.22-2.59,2.39,2.97,4.78,5.71,6.92,8.63,2.31,3.15,1.57,7.04-1.61,9.69-3.32,2.77-7.29,2.86-9.99-.05-2.51-2.71-4.75-5.66-7.22-8.65,1.11-.9,2.09-1.68,3.22-2.6,2.15,2.61,4.2,5.13,6.3,7.62.97,1.16,2.14,1.88,3.75,1.28,2.48-.92,3.31-3.35,1.71-5.48-1.97-2.62-4.09-5.12-6.3-7.86h0Z"/><path class="cls-1" d="M169.8,178.23c-1.44-1.62-3.98-2.13-3.01-5.14.19-.57-1.52-1.76-2.71-3.04,1.33-.43,2.47-.81,4.15-1.35.24-.81.7-2.35,1.32-4.38-2.44,1.56-4.5,2.86-6.54,4.17q-3.19,2.05-6.56-.44c4.93-3.19,9.78-6.39,14.73-9.43.57-.35,1.96-.16,2.44.31.62.62,1.16,1.9.95,2.69-1.45,5.49-3.1,10.93-4.76,16.62h0Z"/><path class="cls-1" d="M145.78,164.84c-3.69-.44-4.01-.87-3.17-4.12.71-2.75,1.39-5.51,2.16-8.24.95-3.37,2.97-4.61,6.41-3.91,2.22.45,4.4,1.07,6.83,1.67-.33,1.27-.62,2.41-.97,3.78-1.95-.49-3.77-.97-5.61-1.41-2.18-.52-2.48-.29-2.76,2.16,2.22.6,4.47,1.2,6.91,1.86-.3,1.26-.56,2.39-.87,3.68-2.51-.6-4.82-1.16-7.24-1.74-.6,2.23-1.15,4.26-1.7,6.25h0Z"/><path class="cls-1" d="M145.53,260.28c-5.54-1.81-8.94-5.49-10.08-11.27-1.92-9.73,4.49-18.03,14.4-18.2,2.86-.05,5.75.67,8.59,1.21.55.1,1.31.97,1.36,1.54.16,2.02.06,4.06.06,6.42-.86-.92-1.56-1.68-2.27-2.44-4.6-4.94-12.47-3.19-14.41,3.27-1.28,4.25-.7,8.35,1.73,12.07,2,3.06,5.58,3.94,8.36,2.11.59-.39,1.14-1.29,1.19-1.99.18-2.39.51-4.92-2.18-6.57h10.68c-3.13,4.27-1.14,9.2-1.61,13.85h-.43c-1.03-.95-2.06-1.89-2.87-2.64-2.5.95-4.73,1.79-6.97,2.64h-5.56Z"/><path class="cls-1" d="M178.9,260.28c-.26-.11-.51-.27-.78-.33-5.43-1.25-7.62-3.83-7.73-9.36-.08-3.99-.01-7.98-.03-11.96-.01-2.36.57-4.86-1.59-6.99h11.28c-3.25,2.2-2.52,5.01-2.53,7.62-.03,3.84-.05,7.69.06,11.53.1,3.54,1.78,4.86,5.81,4.85,3.96,0,5.7-1.41,5.77-4.93.1-5.13.14-10.26-.02-15.38-.04-1.18-1.02-2.33-1.59-3.56h8.22c-2.6,2.15-1.92,4.86-1.97,7.41-.07,4.34.03,8.69-.21,13.02-.23,4.18-2.52,6.83-6.71,7.69-.25.05-.48.25-.71.38h-7.27Z"/><path class="cls-1" d="M76.91,231.71h21.94c.15,2.23.3,4.4.45,6.56-.22.06-.43.15-.45.11-1.91-2.94-4.81-3.03-7.86-2.82-1.69.12-3.39.02-5.23.02v7.28c3.09-.22,6.31,1.11,8.98-2.31v8.79c-2.62-3.44-5.86-2.13-9-2.36v8.28c3.44,0,6.9.13,10.33-.09.83-.05,1.6-1.25,2.36-1.97.55-.52,1.04-1.12,1.97-2.15-.18,3.04-.33,5.53-.48,8.17h-23.16c2.95-3.37,1.41-7.38,1.65-11.13.21-3.34.05-6.69.04-10.04,0-2.17.46-4.47-1.53-6.34h0Z"/><path class="cls-1" d="M201.67,259.26c1.91-1.86,1.6-4.12,1.59-6.31-.02-4.91-.02-9.83,0-14.74,0-2.26.38-4.59-2.35-6.43h22.75v6.43c-.05,0-.25.03-.29-.03-1.61-2.45-3.96-2.86-6.67-2.64-2.03.17-4.08.03-6.26.03v6.97c3.58.89,6.07.47,8.96-1.61v8.16c-2.47-3.15-5.73-1.88-8.91-2.16v8.33c3.46,0,6.87.11,10.26-.08.77-.05,1.52-1.12,2.22-1.78.62-.58,1.15-1.26,2.17-1.82-.17,2.53-.34,5.05-.51,7.68h-22.95Z"/><path class="cls-1" d="M117.48,237.29c-1.4,4.01-2.57,7.4-3.8,10.93h7.05c-1.05-3.52-2.06-6.92-3.25-10.93h0ZM104.19,259.17c3.89-6.94,5.93-14.66,8.96-21.97.75-1.8,1.64-3.54-.92-5.56,3.56,0,6.36-.08,9.15.08.46.03,1.04,1.01,1.26,1.66,2.1,6.04,4.08,12.12,6.2,18.15.92,2.62,2.1,5.15,3.17,7.71h-11.19c2.57-1.65,2.48-3.58,1.52-5.53-.27-.54-1.04-1.14-1.62-1.18-2.2-.14-4.41-.14-6.61-.01-.77.04-2.02.45-2.18.97-.42,1.34-1.95,2.73-.38,4.29.35.34.62.77,1.11,1.4h-8.47Z"/><path class="cls-1" d="M49.31,259.25c2.83-2.21,2.09-4.94,2.12-7.48.04-4.7.11-9.4-.03-14.1-.06-1.92-.62-3.83-.97-5.85h10.81c-3.33,1.85-2.63,4.62-2.64,7.16-.02,5.33,0,10.65,0,16.25,3.14,0,6.11.13,9.05-.09.78-.06,1.52-1.14,2.23-1.81.75-.72,1.44-1.5,2.61-2.74-.4,3.3-.73,5.93-1.06,8.66h-22.11Z"/><path class="cls-1" d="M273.87,213.22c-2,4.84-6.03,6.69-10.85,6.84-3.23.1-6.49-.48-9.73-.81-1.58-.16-2.3-.99-2.22-2.7.08-1.91-.15-3.83-.28-6.48,1.09,1.31,1.92,2.06,2.44,2.99,1.37,2.46,3.61,3.09,6.12,3.09,1.62,0,3.35-.02,4.83-.56,1.01-.37,2.06-1.53,2.42-2.57.51-1.45-.53-2.6-1.89-3.17-1.57-.66-3.21-1.14-4.81-1.74-1.86-.69-3.77-1.3-5.55-2.17-2.62-1.28-4.14-3.38-4.13-6.45,0-3.06,1.26-5.44,3.96-6.83,5.39-2.78,11-2.46,16.61-.74.4.12.87.78.89,1.2.09,2.1.04,4.22.04,6.62-.89-.95-1.7-1.81-2.5-2.67-2.19-2.38-8.13-3.13-10.86-1.37-1.9,1.23-1.83,3.78.31,4.82,1.71.83,3.6,1.3,5.42,1.92,1.21.41,2.44.77,3.65,1.18,2.9.99,5.14,2.7,6.12,5.75v3.85h0Z"/><path class="cls-1" d="M119.54,200.45c-2.02,5.61-4.06,11.21-6.05,16.83-.42,1.18-.74,2.16-2.4,2.06-1.63-.09-2.85-.06-3.55-2.05-1.82-5.16-3.95-10.22-5.95-15.32-.19-.49-.41-.98-.62-1.47-.25.03-.51.05-.77.08,0,5.1-.1,10.21.08,15.3.04,1.08,1.12,2.11,1.77,3.27h-9.2c3.26-2.09,2.55-5.08,2.71-7.83.27-4.55.62-9.11.71-13.66.04-1.92-.49-3.85-.8-6.05,2.35,0,5.31-.08,8.25.08.48.02,1.07.99,1.32,1.64,2.16,5.42,4.26,10.86,6.53,16.7.99-2.68,1.85-5,2.69-7.32,1.14-3.14,2.36-6.27,3.37-9.45.43-1.36,1.13-1.74,2.46-1.69,2.48.09,4.97.03,8.1.03-2.84,2.65-1.63,5.52-1.48,8.24.25,4.7.53,9.4,1.04,14.07.19,1.78,1.02,3.49,1.57,5.25h-10.31c3.03-1.72,1.94-4.43,1.78-6.89-.25-3.9-.52-7.8-.78-11.7-.16-.03-.32-.07-.48-.1h0Z"/><path class="cls-1" d="M40.81,191.75c-3.19,3.25-1.3,7.03-1.97,10.65h9.99c-.44-3.51,1.32-7.28-1.87-10.65h11.22c-2.78,1.97-2.19,4.48-2.2,6.84-.02,4.7-.01,9.41,0,14.11,0,2.23-.48,4.6,2.22,6.46h-11.14c3.22-3.71,1.13-7.91,1.92-11.98h-10.09c.66,3.93-1.34,8.1,1.74,11.94h-10.81c2.54-1.99,1.96-4.56,1.97-6.98.02-4.7.01-9.41,0-14.11,0-2.17.45-4.47-2.27-6.28h11.29Z"/><path class="cls-1" d="M189.15,203.71c.44,3.6,1.04,7.02,3.39,9.85,2.82,3.39,7.56,3.06,9.73-.61,2.45-4.14,1.32-12.66-2.13-16.06-3.19-3.15-8.16-2.25-9.83,1.89-.63,1.55-.79,3.28-1.16,4.93h0ZM211.01,205.7c-.05,8.45-6.38,14.64-14.86,14.54-8.17-.09-14.28-6.67-14.2-15.27.08-8.16,6.5-14.43,14.66-14.33,8.32.1,14.45,6.52,14.4,15.07h0Z"/><path class="cls-1" d="M237.97,208.59c0-5.02.12-9.48-.09-13.93-.05-.96-1.31-1.86-2.13-2.93h8.8c-2.68,2.18-2.02,4.88-2.03,7.42-.03,5.84,0,11.68,0,17.53v2.26c-4.31,1-5.05.72-7.34-2.7-3.84-5.72-7.69-11.43-12.01-17.08v3.05c0,3.63.05,7.27-.02,10.9-.04,2.25-.18,4.48,2.22,5.98h-8.76c2.65-1.87,2.08-4.31,2.09-6.59.02-4.63.03-9.26,0-13.89-.02-2.35.65-4.87-1.97-6.64.14-.12.28-.24.42-.36,2.96,0,5.93-.08,8.89.07.58.03,1.26.81,1.65,1.4,2.96,4.44,5.85,8.93,8.78,13.4.37.57.78,1.11,1.51,2.13h0Z"/><path class="cls-1" d="M144.68,205.84c2.77.61,5.36.84,7.33-1.53,1.19-1.43,1.3-4.67.22-6.28-1.85-2.77-4.68-2.42-7.56-2.3v10.11h0ZM147.46,219.17h-12.05c2.6-2.11,1.99-4.75,2-7.23.02-4.7,0-9.4.01-14.09,0-2.13.36-4.33-1.89-5.8.42-.23.6-.41.77-.41,4.98.04,9.97-.09,14.93.22,5.66.35,8.88,3.8,8.85,8.96-.03,5.13-3.55,8.71-9.08,9.08-2.04.14-4.1.02-6.41.02.36,3.11-1.54,6.72,2.86,9.25h0Z"/><path class="cls-1" d="M71.37,208.12h7.03c-1.06-3.55-2.07-6.94-3.23-10.83-1.35,3.84-2.51,7.16-3.8,10.83h0ZM62.13,219.09c1.25-2.94,2.59-5.88,3.77-8.88,1.72-4.37,3.33-8.78,5.01-13.17.66-1.73,1.66-3.45-.63-5.06.14-.12.29-.24.43-.37,2.81,0,5.62-.08,8.41.08.45.03,1.02,1.05,1.24,1.71,2.19,6.32,4.26,12.68,6.48,18.99.8,2.29,1.89,4.48,2.86,6.73h-10.38c.46-1.09,1.41-2.24,1.28-3.25-.45-3.5-.6-3.48-4.13-3.48h-3.64c-2.92,0-4.16.98-4.19,3.82-.01.91.86,1.82,1.4,2.87h-7.92Z"/><path class="cls-1" d="M23.52,200.54c-1.1-1.33-1.82-2.19-2.53-3.05-2.46-3.02-6.58-3.58-9.76-1.33-3.08,2.18-4.52,7.15-3.38,11.64,1.09,4.25,4.26,7.65,8.12,7.67,2.79.02,5.59-1.06,8.41-1.65.72,2.88.3,3.95-2.85,5.13-6.13,2.29-12,1.9-16.93-2.71C0,211.93-1.02,206.43.95,200.54c2.06-6.15,6.79-9.23,13.04-9.69,2.91-.21,5.88.54,8.83.86.23,2.3.48,4.6.7,6.9.04.42,0,.85,0,1.93h0Z"/><path class="cls-1" d="M176.35,191.76c-2.68,2.09-2.1,4.66-2.11,7.09-.01,4.85-.09,9.7.04,14.54.05,1.86.62,3.71.98,5.69h-10.07c2.63-2.08,1.97-4.79,1.99-7.36.02-4.56.02-9.12,0-13.69,0-2.17.52-4.51-1.65-6.28h10.82Z"/><path class="cls-1" d="M161.48,77.11c-3.95-.91-7.9-1.79-11.84-2.73-3.64-.87-7.27-1.79-10.89-2.76-.79-.21-1.17-.05-1.58.63-3.31,5.54-6.65,11.05-9.99,16.57-.1.16-.2.31-.49.75-.59-2.63-1.26-4.98-1.63-7.38-.74-4.77-1.33-9.56-1.91-14.35-.09-.77-.46-1.02-1.09-1.26-5.52-2.08-11.04-4.18-16.56-6.29-.39-.15-.77-.34-1.33-.6.87-.43,1.6-.84,2.36-1.16,5.05-2.13,10.1-4.26,15.17-6.33.85-.35,1.16-.76,1.19-1.67.23-6.59,1.38-13.05,2.91-19.45.06-.24.15-.48.26-.87.22.33.37.54.5.76,3.12,4.98,6.25,9.94,9.33,14.94.47.77.91.86,1.77.62,7.32-2.05,14.66-4.04,21.99-6.05.15-.04.3-.05.63-.1-.86,1.13-1.64,2.12-2.39,3.13-3.73,5.03-7.43,10.08-11.18,15.1-.49.65-.49,1.06.05,1.67,4.77,5.32,9.52,10.67,14.27,16.01.2.22.28.54.42.81h0Z"/><path class="cls-1" d="M161.48,77.11c3.66.24,7.31.61,10.98.69,2.85.06,5.71-.25,8.56-.38.74-.03,1.17-.36,1.47-1.05,2.62-6.1,5.26-12.19,7.9-18.28.12-.28.23-.56.34-.84.11,0,.22,0,.34,0,.6,5.68,1.2,11.37,1.81,17.14,3.21-1.23,5.84-3.21,7.89-6-1.02,5.81-3.1,11.19-6.32,16.07-1.23,1.87-1.91,3.77-2.19,5.96-.41,3.19-1.31,6.27-2.76,9.16-.19.37-.41.72-.62,1.09-1.28-1.32-2.44-2.64-3.73-3.83-1.34-1.24-1.4-1.18-2.9-.2-4.56,2.99-9.51,5.12-14.79,6.46-.32.08-.66.12-1.01.18,2.89-4.36,5.73-8.67,8.62-13.03-1.34-1.17-2.64-2.15-3.76-3.29-2.9-2.95-5.71-5.98-8.58-8.95-.35-.36-.83-.61-1.24-.9,0,0,0,0,0,0h0Z"/><path class="cls-1" d="M90.79,106.45c4.39.7,8.59-.02,12.57-1.49-2.39-5.2-4.73-10.3-7.07-15.41.12-.08.23-.15.35-.23.25.19.51.37.76.56,4.44,3.48,8.9,6.94,13.32,10.45.62.49,1.06.48,1.72.08,4.58-2.84,8.83-6.11,12.81-9.75.31-.28.63-.55,1.17-1.03-.16,1.04-.29,1.8-.39,2.57-.67,5.09-1.32,10.19-2.03,15.27-.13.95.24,1.38,1.02,1.78,4.09,2.08,8.16,4.19,12.6,6.48-4.76.23-9.23.45-13.69.67-.41,1.78.37,5.76,1.85,9.33-.35-.07-.62-.1-.88-.18-5.38-1.75-9.67-5.1-13.31-9.32-.71-.83-1.49-1.21-2.52-1.4-5.31-.99-10.42-2.57-15.02-5.5-1.19-.76-2.27-1.68-3.4-2.53.05-.12.1-.23.15-.35h0Z"/><path class="cls-1" d="M154.61,12.04c3.41.82,6.86,1.48,10.2,2.52,3.34,1.03,6.56,2.44,10.13,3.79.29-2.1.58-4.23.9-6.53.96,1.1,2.04,2.1,2.84,3.29,1.92,2.84,3.7,5.78,5.57,8.66.43.67.9,1.35,1.5,1.86,4.79,4.14,9.33,10.14,11.64,15.6-2.6-1.76-5.28-2.72-8.25-3.02.42,3.02.94,5.94,1.21,8.88.27,2.96.28,5.94.15,9-.15-.22-.31-.43-.45-.65-3.46-5.67-6.94-11.33-10.38-17.01-.49-.81-1.09-1-1.99-.97-5.51.19-10.9,1.22-16.28,2.31-.22.04-.45.08-.66.11,3.33-4.33,6.64-8.64,9.97-12.97-4.9-5.7-10.35-10.34-16.29-14.42.06-.15.12-.3.18-.44h0Z"/><path class="cls-1" d="M100.49,22.44c3.59-4.5,7.87-8.32,12.82-11.73-1.31-1.87-2.57-3.69-3.92-5.61.71-.14,1.53-.34,2.37-.47,4.3-.68,8.61-.8,12.95-.49.74.05,1.54-.09,2.24-.35C134.13,1.13,141.57-.04,149.21,0c.14,0,.28.01.44.09-3.84,1.47-7.39,3.41-10.55,6.09,4.77,1.84,9.44,3.65,14.11,5.45-.03.17-.07.35-.1.52-.59,0-1.17-.03-1.75,0-6.13.42-12.25.83-18.37,1.31-.47.04-1.05.47-1.32.89-2.77,4.25-4.58,8.91-5.74,13.83-.1.41-.2.82-.35,1.44-3.74-3.9-6.79-8.11-9.4-12.98-5.25,1.93-10.45,3.85-15.68,5.77h0Z"/><path class="cls-1" d="M95.95,88.54c-3.67-2.44-7.35-4.87-11.25-7.45-.8,1.65-1.72,3.36-2.45,5.15-.74,1.8-1.28,3.69-1.94,5.64-1.43-3.16-2.27-6.41-2.61-9.76-.24-2.41-.19-4.86-.33-7.28-.03-.53-.25-1.1-.53-1.57-1.09-1.9-2.24-3.77-3.36-5.65-.39-.65-.2-1.17.46-1.54,1.45-.81,2.86-1.67,4.35-2.4.68-.33,1.08-.7,1.31-1.44,1.46-4.55,3.6-8.77,6.12-12.82.1-.16.22-.3.42-.59.48,4.15.94,8.14,1.39,12.05,5.4-.51,10.65-1.01,15.89-1.51.05.13.1.27.15.4-.26.23-.51.47-.77.7-4.26,3.59-8.24,7.48-11.87,11.71-.55.64-.63,1.17-.38,1.97,1.49,4.72,3.15,9.36,5.51,13.73.06.12.08.26.13.4-.08.1-.16.19-.24.29h0Z"/><path class="cls-1" d="M166.03,103.6c.73,3.97.56,7.66-.19,11.56,5.31-1.09,10.18-3,14.95-5.24-12.21,11.3-26.62,17.06-43.29,17.13,3.34-1.07,6.54-2.43,9.4-4.26-2.9-2.15-5.76-4.28-8.62-6.41.07-.11.13-.22.19-.33,2.17.16,4.34.4,6.51.47,2.97.1,5.95.12,8.93.09.54,0,1.25-.29,1.6-.69,3.17-3.58,6.29-7.22,9.41-10.85.35-.4.64-.85,1.1-1.48h0Z"/><path class="cls-1" d="M81.16,40.17c-2.33,3.54-4.55,6.91-6.87,10.43,2.89-15.43,10.83-27.62,22.66-37.45-2.22,3.42-4.15,6.98-5.71,10.81,2.97-.38,5.78-.74,8.59-1.1.03.09.07.18.1.28-.32.25-.64.5-.94.75-3.44,2.87-6.9,5.73-10.31,8.64-.4.34-.66.94-.79,1.47-1.05,4.22-1.5,8.52-1.63,12.85-.01.37,0,.75,0,1.13-.11.05-.23.09-.34.14-1.53-2.55-3.05-5.09-4.76-7.94h0Z"/></g></svg>