<?xml version="1.0" encoding="UTF-8"?><svg id="Camada_2" xmlns="http://www.w3.org/2000/svg" viewBox="0 0 207.6 259.65"><defs><style>.cls-1{fill:#fff;stroke-width:0px;}</style></defs><g id="Camada_1-2"><path class="cls-1" d="M156.22,206.62c-8.71-54.35-29.9-102.79-66.57-144.5,3.14-1.76,6.04-3.37,8.93-5.01,2.8-1.59,5.59-3.2,8.65-4.95-7.83-10.85-16.77-20.09-26.4-28.7C71.19,14.85,60.6,7.53,49.72.41c1.34-.59,2.62-.45,3.91-.18,7.83,1.67,15.41,4.09,22.81,7.15,11.64,4.82,22.43,11.07,32.31,18.88,10.85,8.57,20,18.69,27.6,30.23.16.24.24.54.48,1.11-5.14,3.49-10.94,5.96-16.36,9.5,24.63,35.44,37.16,74.66,37.61,117.69.08,7.32-.23,14.65-1.87,21.82Z"/><path class="cls-1" d="M59.86,258.7h-6.6c-.08-.08-.16-.14-.22-.21-.06-.07-.17-.15-.17-.23-.05-14.09-.09-28.19-.12-42.28,0-1.48.07-2.95.13-4.43,0-.17.19-.33.32-.54,3.89,0,7.81-.01,11.73,0,1.49,0,2.93.4,4.33.88,3.77,1.3,5.51,3.77,5.53,7.8.02,4.54-.09,9.07.05,13.6.11,3.46-.99,6.16-3.98,8.01-.23.15-.39.42-.74.81,2.42,5.1,3.87,10.58,5.28,16.31-2.58.83-5.08.31-7.57.34-.95-1.54-1.1-3.23-1.6-4.81-1.03-3.29-2.05-6.58-3.78-9.59-.94-1.64-1.08-3.33-.63-5.21,1.6-1.05,3.45-1.78,5.29-3.39.17-5.39.03-11.07,0-16.66-2.11-1.44-4.16-.97-6.18-.93-.89,1.23-.56,2.55-.57,3.79-.03,11.14,0,22.28-.03,33.42,0,1.05.28,2.17-.48,3.3Z"/><path class="cls-1" d="M48.21,234.75c0,4.83-.15,9.66.04,14.48.24,6.2-2.79,9.11-8.43,10.08-2.43.41-4.89.34-7.3-.4-4.09-1.27-6.22-3.9-6.37-8.19-.09-2.66.01-5.32.01-7.98,0-7.58.15-15.17-.07-22.75-.18-6.23,3.83-9.08,9.04-9.4,2.82-.17,5.68-.31,8.4,1,3.07,1.48,4.67,3.82,4.68,7.21.02,5.32,0,10.64,0,15.96ZM40.44,251.78v-33.35c-2.51-1.23-3.12-1.27-6.06-.43-.85,2.37-.92,31.26-.05,33.78,1.88.58,3.81.5,6.11,0Z"/><path class="cls-1" d="M58.94,164.84c-2.47.67-4.75,1.03-7.27.81-.49-2.4.15-4.79-.4-7.01-2.56-1.26-3.37-1.28-6.37-.11v33.23c2.16.89,4.14.85,6.37.09v-13.26c-.9-1.77-2.88-2.46-4.41-3.66-.35-1.19-.25-2.35.03-3.72h11.73c.69.66.51,1.59.51,2.45.02,5.62.04,11.24,0,16.86-.04,4.93-2.24,7.71-7.05,8.77-3.32.73-6.67.77-9.87-.6-3.27-1.41-5.12-3.75-5.09-7.53.08-10.35.02-20.7.02-31.05,0-.79.08-1.57.12-2.36.13-2.91,1.74-4.82,4.31-5.82,4.14-1.61,8.39-2.08,12.66-.35,2.68,1.09,4.4,2.99,4.73,5.91.27,2.34.34,4.69,0,7.35Z"/><path class="cls-1" d="M154.14,224.58c-2.44.8-4.75.85-7.13.93-.72-2.52.22-5.06-.73-7.45-2.06-.85-4.03-.8-6.26.25-.18,11.02-.15,22.11,0,33.17,2.28,1.05,4.25,1.06,6.63.12.18-4.39.09-8.88,0-13-1.09-2.17-3.04-2.71-4.5-3.9-.27-1.15-.28-2.3.12-3.7h11.62c.65.8.43,1.72.43,2.58.01,5.72-.14,11.44.03,17.15.13,4.35-2.54,6.75-5.52,7.85-3.94,1.46-7.96,1.45-11.81-.3-3-1.36-4.68-3.66-4.66-7.2.07-10.45-.03-20.9-.02-31.34,0-5.36,2.1-8.05,7.39-9.04,3.3-.62,6.66-.47,9.88.83,2.74,1.1,4.33,3.05,4.58,5.97.19,2.25.22,4.51-.04,7.06Z"/><path class="cls-1" d="M104.76,211.01h7.22c.55,1.21.4,2.49.4,3.75,0,11.43-.02,22.86-.02,34.29,0,.88-.16,1.79.55,2.73,1.85.53,3.84.77,6.2-.08.38-2.63.12-5.37.16-8.08.04-2.66.01-5.32.01-7.98,0-2.76,0-5.52,0-8.28,0-2.66-.04-5.32.01-7.98.05-2.73-.19-5.48.21-8.33h6.96c.62.95.4,1.86.4,2.72,0,12.12,0,24.24-.02,36.36-.01,4.9-2.23,7.66-6.96,8.85-3.24.81-6.4.76-9.56-.47-3.62-1.41-5.5-3.91-5.54-7.85-.05-5.52-.02-11.04-.02-16.55,0-6.5,0-13.01,0-19.51,0-1.07,0-2.15,0-3.57Z"/><path class="cls-1" d="M70.9,151.03c3.66-.26,7.16-.18,11.04.03,2.57,15.92,4.58,31.77,6.93,47.56-2.42.59-4.66.63-7.59.13-.34-1.96-.69-3.98-1.04-5.96-1.63-1.97-4.13-2.28-6.18-3.42-.38-1.48.07-2.72.66-3.91,1.43-.46,2.88.24,4.45-.68-.85-6.17-1.72-12.45-2.59-18.73-.21-.01-.42-.02-.63-.03-1.29,5.36-1.59,10.9-2.4,16.34-.81,5.44-1.57,10.88-2.37,16.42-2.4.65-4.72.12-7.4.32.14-5.63,1.44-10.87,2.1-16.17.65-5.27,1.48-10.53,2.4-15.76.93-5.3,1.25-10.7,2.61-16.14Z"/><path class="cls-1" d="M157.56,258.61c2.42-16,4.81-31.83,7.21-47.79h11.25c2.38,15.89,4.69,31.72,6.81,47.69-2.66.56-4.97.39-7.41.16-.72-1.9-.66-3.89-1.08-5.91-1.47-2.08-4.06-2.46-6.23-3.58-.53-1.35.14-2.51.46-3.71,1.38-.82,2.99.23,4.65-.81-.86-6.11-1.74-12.38-2.63-18.65-.23,0-.46-.01-.69-.02-1.82,10.75-2.98,21.61-4.69,32.69-2.49.26-4.96.32-7.66-.07Z"/><path class="cls-1" d="M0,211c3.9,0,7.54-.01,11.18,0,2.2,0,4.31.47,6.28,1.45,2.58,1.28,4.13,3.33,4.15,6.3.05,6.21.11,12.42.06,18.62-.03,3.23-2.01,5.3-4.77,6.54-2.44,1.1-5.05,1.55-7.83,1.17-.77-1.25-.47-2.49-.3-3.69,1.53-1.64,4.08-1.81,5.19-3.98v-18.44c-2.09-1.1-4.1-.96-6.42-.67-.34,6.78-.12,13.45-.16,20.11-.04,6.68,0,13.37,0,20.22-2.51.44-4.82.15-7.38.19v-47.82Z"/><path class="cls-1" d="M74.77,72.38c13.42,12.27,24.28,25.9,33.52,40.79-.44,1.81-1.63,2.87-2.79,4.32-7.51-2.44-15.05-4.9-22.42-7.29-1.33-3.03-8.48-35.16-8.31-37.82Z"/><path class="cls-1" d="M85.96,218.02h-7.1v-7.11h22.34c.4,2.32.34,4.61.07,7.17h-7.15v40.62c-2.73.28-5.12.21-7.91.06,0-4.67,0-9.16,0-13.66,0-4.43.04-8.87,0-13.3-.05-4.5.23-9.01-.24-13.78Z"/><path class="cls-1" d="M.79,151.48h7.24v40.05c3.95.85,7.68.12,11.54.43.51,2.23-.35,4.41-.41,6.59-2.11.64-14.57.78-18.37.2v-47.28Z"/><path class="cls-1" d="M196.14,251.48c3.95.99,7.52.1,11.18.68.61,2.18.08,4.25-.19,6.51h-18.23v-47.64h6.96c.62,2.57.2,5.22.27,7.83.07,2.76.01,5.52.01,8.28,0,2.66,0,5.32,0,7.98,0,2.76,0,5.52,0,8.28,0,2.65,0,5.29,0,8.08Z"/><path class="cls-1" d="M32.02,198.95h-7.34v-47.37h7.05c.49,2.99.22,6.12.28,9.22.05,3.15.09,6.31.1,9.46,0,3.25-.06,6.51-.08,9.76-.02,3.16-.01,6.31-.01,9.47,0,3.12,0,6.24,0,9.46Z"/></g></svg>