<?xml version="1.0" encoding="UTF-8"?><svg id="Camada_2" xmlns="http://www.w3.org/2000/svg" viewBox="0 0 305.98 120.06"><defs><style>.cls-1{fill:#fff;stroke-width:0px;}</style></defs><g id="Camada_1-2"><polygon class="cls-1" points="29.16 101.05 29.75 107.32 28.58 107.32 29.16 101.05"/><path class="cls-1" d="M19.57,100.59h-.44v4.17h.44c.58,0,.84-.26.84-.98v-2.21c0-.73-.26-.98-.84-.98ZM19.57,106.64h-.44v4.82h.44c.58,0,.84-.11.84-.73v-3.37c0-.62-.26-.73-.84-.73ZM19.57,106.64h-.44v4.82h.44c.58,0,.84-.11.84-.73v-3.37c0-.62-.26-.73-.84-.73ZM19.57,100.59h-.44v4.17h.44c.58,0,.84-.26.84-.98v-2.21c0-.73-.26-.98-.84-.98ZM37.82,114.01c.11-2.54.51-5.4.51-5.4,0,0-.62-1.41-.98-2.39-.4-1.01,0-.81.11-1.16,0,0,.15-1.23-.62-2.39-.77-1.13-2.55-4.89-2.66-4.89-.15,0,.62-1.01.62-1.01l-1.53-3.41s-8.71-6.52-12.39-9.93c-3.65-3.41-10.5-14.86-11.12-14.97-.66-.15-1.9.25-1.9.25,0,0-.4-1.12-.91-2.79-.26-.79-1.39-3.51-2.44-6.16-1.02-2.54-1.97-5.04-1.97-5.76,0-1.52,0-3.66.36-5.19.4-1.48,2.55-3.77,2.41-3.77-.11,0-.51-.76-.51-.76,0,0-1.64,1.09-3.65-.54-2.04-1.63-.51-6.3,3.14-15.11,3.68-8.81,5.21-10.51,5.98-11.13.73-.65,1.13-.91,1.24-.91,1.02-.02,2.88-.08,3.79-.11l.51-.62,3.57-.14s2.29-.11,1.39-5.91c0,0-.77-1.88-.77-2.29,0-.36.51-.87.62-.98,1.22-1.22,1.22-.98,1.38-4.53l1.68-1.27L24.67,0H7.61C3.42,0,0,3.37,0,7.54v104.95c0,4.16,3.42,7.57,7.61,7.57h31.63s-1.53-1.92-1.42-6.05ZM14.39,113.62h-4.34l-2.62-11.92v11.92h-2.84v-15.22h5.07l1.86,9.89.04-9.89h2.84v15.22ZM24.06,102.65c0,1.45-.4,2.5-2.73,2.86v.07c1.9.15,2.73.87,2.73,3.3v1.34c0,2.61-1.46,3.41-4.3,3.41h-4.27v-15.22h4.27c2.26,0,4.3.76,4.3,3.08v1.16ZM30.39,113.62l-.4-4.13h-1.75l-.55,4.13h-3.24l2.73-15.22h4.81l2.19,15.22h-3.79ZM19.57,106.64h-.44v4.82h.44c.58,0,.84-.11.84-.73v-3.37c0-.62-.26-.73-.84-.73ZM19.57,100.59h-.44v4.17h.44c.58,0,.84-.26.84-.98v-2.21c0-.73-.26-.98-.84-.98Z"/><path class="cls-1" d="M20.41,101.57v2.21c0,.72-.26.98-.84.98h-.44v-4.17h.44c.58,0,.84.26.84.98Z"/><path class="cls-1" d="M20.41,107.37v3.37c0,.62-.26.73-.84.73h-.44v-4.82h.44c.58,0,.84.11.84.73Z"/><polygon class="cls-1" points="29.75 107.32 28.58 107.32 29.16 101.05 29.75 107.32"/><path class="cls-1" d="M20.41,101.57v2.21c0,.72-.26.98-.84.98h-.44v-4.17h.44c.58,0,.84.26.84.98Z"/><path class="cls-1" d="M20.41,107.37v3.37c0,.62-.26.73-.84.73h-.44v-4.82h.44c.58,0,.84.11.84.73Z"/><polygon class="cls-1" points="29.75 107.32 28.58 107.32 29.16 101.05 29.75 107.32"/><path class="cls-1" d="M41.73,69.87c-5.1,0-9.22-4.1-9.22-9.17,0-3.91,2.51-7.28,6.05-8.59.26-.47.58-.91.58-.91,0,0-.51-1.23-1.64-3.01-1.17-1.78-2.81-6.05-3.32-7.54-.47-1.52-1.38-8.08-1.64-8.19-.26-.14-.36,0-1.49.51-1.17.51-2.15,2.39-2.55,3.26-.36.87-2.41,6.31-2.51,6.31-.15,0,.51.62.51.62,0,0,1.24.76,1.64,1.27.36.51,3.43,11.56,3.43,11.56l-.77,1.27s.18,1.05.47,2.5c.33,1.52.77,3.52,1.28,5.29,1.02,3.52,2.15,9.06,2.15,9.06,0,0,1.53,2.54,2.81,5.18,1.24,2.61,2.77,12.32,2.77,12.43,0,.15,2.15,3.55,2.4,4.93.26,1.38-.62,4.53-.62,4.53,0,0,.11,2.39.26,2.9.11.47.26,1.23.62,1.74.36.51.36,1.63.36,2.14s2.04,7.07,2.04,7.79c0,.76-1.38,2.9-1.89,3.3-.11.07-.95.94-1.02,1.01,4.08-.15,7.36-3.48,7.36-7.57v-47.33c-1.57,2.83-4.59,4.71-8.05,4.71Z"/><path class="cls-1" d="M42.16,0h-11.73c.26.11,2.81,1.81,3.28,2.39.47.62.36,1.52.11,2.65-.26,1.12-.77,2.5-.77,2.5,0,0-.36.91-.25,1.01.15.15.25.65.25.65,0,0-1.49,2.75-1.64,2.86-.11.15-2.04,3.55-2.66,3.81-.27.08-.49.8-.26.98.34.26,1.9,1.41,1.9,1.41l.77.11,1.89,1.27s.15.62,1.02,1.12c.87.51,2.77,2.25,3.94,3.77,1.13,1.52,1.38,4.93,1.49,7.54.15,2.65,1.17,8.33,1.38,8.7.26.36,2.04,4.78,2.4,5.91.4,1.12.66,3.66.66,3.66l1.75,2.14c1.71.8,3.13,2.14,4.08,3.77V7.54c0-4.17-3.43-7.54-7.62-7.54Z"/><polygon class="cls-1" points="149.95 120.06 115.75 120.06 95.06 26.04 95.06 120.06 72.65 120.06 72.65 .03 112.6 .03 127.25 78.05 127.54 .03 149.95 .03 149.95 120.06"/><path class="cls-1" d="M226.22,33.47v-9.14C226.22,6.03,210.13.03,192.31.03h-33.62v120.03h33.62c22.42,0,33.91-6.29,33.91-26.86v-10.58c0-19.14-6.61-24.86-21.55-26v-.57c18.39-2.86,21.55-11.15,21.55-22.58ZM197.42,97.31c0,4.86-2.01,5.72-6.61,5.72h-3.45v-38.01h3.45c4.6,0,6.61.86,6.61,5.72v26.58ZM197.42,42.41c0,5.72-2.01,7.72-6.61,7.72h-3.45V17.26h3.45c4.6,0,6.61,2,6.61,7.71v17.43Z"/><path class="cls-1" d="M288.74.03h-37.93l-21.55,120.03h25.58l4.31-32.58h13.8l3.16,32.58h29.88L288.74.03ZM261.86,70.36l4.6-49.44,4.59,49.44h-9.19Z"/></g></svg>