<?xml version="1.0" encoding="UTF-8"?><svg id="Camada_2" xmlns="http://www.w3.org/2000/svg" xmlns:xlink="http://www.w3.org/1999/xlink" viewBox="0 0 35.2 35.62"><defs><style>.cls-1{fill:url(#Gradiente_sem_nome_9);stroke-width:0px;}</style><linearGradient id="Gradiente_sem_nome_9" x1="-3.47" y1="37.06" x2="27.28" y2="1.97" gradientUnits="userSpaceOnUse"><stop offset=".35" stop-color="#e05928"/><stop offset="1" stop-color="#6228e1"/></linearGradient></defs><g id="Camada_1-2"><path class="cls-1" d="M35.16,11.73c.02-.08.04-.15.04-.24,0-.08-.02-.14-.04-.22-.02-.05,0-.11-.03-.16-.01-.03-.04-.04-.06-.06-.02-.02-.01-.05-.03-.08L26.65.35s0,0,0,0v-.02s-.05-.02-.06-.04c-.06-.07-.14-.13-.22-.18-.04-.02-.08-.03-.13-.05-.05-.02-.1-.05-.15-.05-.02,0-.05,0-.07,0-.02,0-.04-.01-.06-.01H9.21s-.04.01-.06.01c-.02,0-.05,0-.07,0-.05,0-.1.04-.15.05-.04.02-.09.03-.13.05-.08.04-.15.1-.21.17-.02.02-.04.03-.06.05L.17,10.98s-.02.05-.03.08c-.02.02-.05.04-.06.06-.03.05-.02.11-.03.16-.02.07-.04.14-.04.22,0,.08.02.16.04.24.01.05,0,.11.03.16.01.02.04.03.05.06.01.02.01.05.03.07l16.76,23.24c.04.05.1.08.15.13.16.2.29.22.43.23.04,0,.07,0,.11,0,.04,0,.08-.03.13-.03.1-.01.21-.03.3-.08.04-.02.06-.05.09-.08.07-.05.15-.1.2-.17l16.76-23.24s.01-.05.03-.07c.01-.02.04-.03.05-.06.02-.05.01-.1.03-.15ZM17.55,32.04c-1.24-4.12-3.66-12.96-5.47-19.67h11.11c-1.94,6.84-4.43,15.57-5.64,19.67ZM23.94,8.62l-4.69-6.89h5.7l-1.01,6.89ZM23.23,10.65h-11.53l5.9-8.27,5.63,8.27ZM11.25,8.3l-1.03-6.57h5.72l-4.69,6.57ZM26.52,2.97l6.06,7.68h-7.19l1.13-7.68ZM8.67,2.96l1.21,7.69H2.62l6.05-7.69ZM2.53,12.37h7.76c2.29,8.57,3.77,13.97,4.76,17.37L2.53,12.37ZM19.92,30.06c1.42-4.86,3.5-12.18,5.06-17.68h7.69l-12.75,17.68Z"/></g></svg>