<?xml version="1.0" encoding="UTF-8"?><svg id="Camada_2" xmlns="http://www.w3.org/2000/svg" xmlns:xlink="http://www.w3.org/1999/xlink" viewBox="0 0 37.74 37.69"><defs><style>.cls-1{fill:url(#Gradiente_sem_nome_8);stroke-width:0px;}</style><linearGradient id="Gradiente_sem_nome_8" x1="-.75" y1="40.85" x2="37.68" y2="3.09" gradientUnits="userSpaceOnUse"><stop offset="0" stop-color="#e05928"/><stop offset="1" stop-color="#6228e1"/></linearGradient></defs><g id="Camada_1-2"><path class="cls-1" d="M37.2,15.86c-.15-.15-.33-.28-.59-.4-.24-.09-.48-.14-.74-.14H7.07l8.2-1.74,7.82-1.66h.02l1.55-.33.73-.15h0s6.62-1.42,6.62-1.42l3.37-.7c1.01-.19,1.67-1.18,1.48-2.2l-1.19-5.59c-.09-.49-.37-.91-.79-1.19-.41-.28-.93-.38-1.43-.28l-12.91,2.74h0s-6.35,1.35-6.35,1.35h0s-.54.11-.54.11l-2.16.46h0s-6.7,1.44-6.7,1.44l-3.29.69c-.49.09-.91.37-1.19.79-.28.41-.38.93-.29,1.43l1.2,5.65c.11.46.39.83.74,1.08-.16.13-.28.3-.38.48-.04.07-.1.12-.14.2,0,.01,0,.02,0,.03,0,0-.01.01-.01.02h0c-.08.22-.13.44-.13.68v16.35c0,2.29,1.87,4.16,4.16,4.16h28.09c2.29,0,4.16-1.87,4.16-4.16v-16.35c0-.49-.2-.98-.54-1.32ZM35.78,17.24v5.58h-8.38l2.78-2.78,2.78-2.78,2.82-.02ZM30.19,17.27l-2.78,2.78-2.78,2.78h-6.49l5.55-5.55h6.49ZM20.92,17.27l-5.55,5.55h-6.51l2.78-2.78,2.79-2.78h6.5ZM33.75,1.9l1.17,5.5-2.78.58-4.93-3.2-1.66-1.08,8.2-1.79ZM16.51,5.63l6.35-1.35,6.58,4.28-6.33,1.37-5.31-3.47-1.29-.84ZM15.46,7.28l4.92,3.21-6.35,1.35-1.86-1.21-4.73-3.07,6.37-1.36,1.65,1.08ZM1.9,8.74l2.83-.6,6.61,4.29-8.2,1.81-1.25-5.51ZM3.19,17.27h8.46l-2.78,2.78-2.79,2.78h-2.82l-.08-5.55ZM35.78,33.53c0,1.21-.99,2.2-2.2,2.2H5.49c-1.21,0-2.2-.99-2.2-2.2v-8.75h32.5v8.75Z"/></g></svg>