<?xml version="1.0" encoding="UTF-8"?><svg id="Camada_2" xmlns="http://www.w3.org/2000/svg" viewBox="0 0 37.7 37.7"><defs><style>.cls-1{fill:#fff;stroke-width:0px;}</style></defs><g id="Camada_1-2"><path class="cls-1" d="M2.26,2.93c0-.37.3-.67.67-.67h7.04V0H2.93C1.32,0,0,1.32,0,2.93v7.05h2.26V2.93Z"/><path class="cls-1" d="M34.77,0h-7.05v2.26h7.05c.37,0,.67.3.67.67v7.05h2.26V2.93c0-1.62-1.32-2.93-2.93-2.93Z"/><path class="cls-1" d="M35.44,34.77c0,.37-.3.67-.67.67h-7.05v2.26h7.05c1.62,0,2.93-1.32,2.93-2.93v-7.05h-2.26v7.05Z"/><path class="cls-1" d="M2.26,34.77v-7.05H0v7.05c0,1.62,1.32,2.93,2.93,2.93h7.04v-2.26H2.93c-.37,0-.67-.3-.67-.67Z"/><path class="cls-1" d="M15.37,5.54H7.35c-1,0-1.8.81-1.8,1.8v8.02c0,1,.81,1.8,1.8,1.8h8.02c1,0,1.8-.81,1.8-1.8V7.35c0-1-.81-1.8-1.8-1.8ZM14.27,14.27h-5.83v-5.83h5.83v5.83Z"/><path class="cls-1" d="M22.32,17.17h8.02c1,0,1.8-.81,1.8-1.8V7.35c0-1-.81-1.8-1.8-1.8h-8.02c-1,0-1.8.81-1.8,1.8v8.02c0,1,.81,1.8,1.8,1.8ZM23.42,8.44h5.83v5.83h-5.83v-5.83Z"/><path class="cls-1" d="M15.37,20.44H7.35c-1,0-1.8.81-1.8,1.8v8.02c0,1,.81,1.8,1.8,1.8h8.02c1,0,1.8-.81,1.8-1.8v-8.02c0-1-.81-1.8-1.8-1.8ZM14.27,29.17h-5.83v-5.83h5.83v5.83Z"/><polygon class="cls-1" points="28.54 31.58 32.15 31.58 32.15 27.98 32.15 24.37 24.5 24.37 24.5 20.93 20.9 20.93 20.9 24.53 24.5 24.53 24.5 27.98 28.54 27.98 28.54 31.58"/><rect class="cls-1" x="20.9" y="27.98" width="3.61" height="3.61"/></g></svg>