<svg xmlns="http://www.w3.org/2000/svg" width="199" height="65" viewBox="0 0 199 65" fill="none">
<path d="M64.6067 43.3231C60.3919 43.4696 55.9765 42.5747 52.778 40.8423C45.2979 42.6543 39.8249 50.3642 44.6544 58.5454C48.9743 65.4305 61.2776 66.4846 66.8972 60.6663L61.937 55.6633C59.3534 57.8766 53.9727 58.3384 52.5423 54.6538H68.4965C69.1304 50.2559 67.8147 45.9344 64.6067 43.3231ZM52.3352 50.0744C52.5327 49.0203 53.1062 48.0713 54.0109 47.5331C56.1868 46.2019 59.3853 47.4376 59.758 50.0744H52.3352ZM80.6468 43.4441V40.9538H73.4471C72.8768 41.3136 72.262 41.6321 71.6057 41.9091V63.9464H81.1088C81.8033 58.0136 78.0091 47.049 88.0887 48.9407V40.5334C85.0336 40.5684 82.5423 41.3327 80.6468 43.4441ZM35.1323 41.6066C31.1883 39.5589 25.5528 40.4633 22.7716 44.0014C19.8503 39.6385 12.6251 39.4347 9.04111 43.0906V40.9538H0V63.9464H9.50304V52.724C9.44888 50.5585 10.2581 48.5394 12.4881 48.5203C14.6289 48.635 15.0144 50.1986 15.0526 52.4724V63.9464H24.5556V52.724C24.5015 50.5585 25.3106 48.5394 27.5407 48.5203C29.5923 48.6509 30.0861 50.2304 30.1052 52.4724V63.9464H39.6082C38.9679 57.883 42.0198 44.8389 35.1291 41.6066H35.1323ZM135.919 43.183C131.351 39.3933 121.666 39.9092 116.388 43.1416L119.414 49.4056C122.033 47.5013 128.751 46.0714 129.612 50.2878C126.735 50.2782 122.186 50.1604 119.895 51.0871C113.998 52.6125 113.842 60.9975 119.118 63.4019C122.456 65.0292 128.704 64.9273 130.344 60.9402V63.9464H139.175C138.751 58.6982 140.867 46.4376 135.916 43.183H135.919ZM128.477 58.125C124.744 60.5517 122.24 54.622 127.321 54.8672H129.675C129.815 55.9945 129.538 57.5964 128.477 58.125ZM100.937 48.4375C103.288 47.1478 105.894 48.412 106.885 50.9597L114.244 47.3452C109.889 35.8202 88.729 39.7277 89.3534 52.431C88.7099 65.1566 109.873 69.1087 114.244 57.5582L106.885 53.9437C103.1 61.7427 95.075 52.8832 100.937 48.4375ZM197.181 46.2529C188.548 33.6451 165.362 43.374 173.865 58.6091C182.536 71.2869 205.614 61.5166 197.181 46.2529ZM188.752 54.9341C185.429 60.2205 179.841 54.4978 182.278 49.9311C185.633 44.7657 191.176 50.3355 188.752 54.9341ZM159.656 42.5269C152.807 36.9157 141.896 43.6065 142.711 52.4342C141.807 61.4752 153.495 68.2743 160.118 62.0644V63.9496H169.159V32.763H159.656V42.5269ZM159.319 54.9341C155.996 60.2205 150.408 54.4978 152.845 49.9311C156.203 44.7657 161.743 50.3355 159.319 54.9341Z" fill="#627326"/>
<path d="M44.4219 33.5719H47.4642V21.2157C47.4642 20.2699 47.3973 19.3846 47.2667 18.5661C45.3043 23.4162 44.425 33.5591 44.4219 33.5751V33.5719ZM25.3903 14.2414L27.7031 19.0279C28.4613 18.4674 29.3693 18.0279 30.4365 17.7031C31.5005 17.3814 32.5518 17.219 33.5904 17.219C35.1323 17.219 36.2473 17.512 36.9322 18.1012C37.4547 18.5502 37.7764 19.1521 37.9038 19.9068H34.0969C31.714 19.9068 29.7452 20.1743 28.1905 20.7062C26.6359 21.238 25.4795 22.0246 24.7213 23.0596C23.9631 24.0977 23.5872 25.3588 23.5872 26.8428C23.5872 28.1613 23.9089 29.3587 24.5556 30.4351C25.1991 31.5146 26.1549 32.3745 27.4164 33.0209C28.678 33.6642 30.2485 33.9891 32.1249 33.9891C34.116 33.9891 35.6993 33.5687 36.8749 32.728C37.6331 32.1866 38.2192 31.4637 38.6397 30.5624V33.5687H42.8449C40.8379 11.9326 27.6745 13.7574 25.3935 14.2383L25.3903 14.2414ZM37.9644 26.0881C37.7127 26.8428 37.3113 27.397 36.7665 27.7473C36.2186 28.0976 35.6229 28.2727 34.9793 28.2727C34.2785 28.2727 33.7242 28.0976 33.3196 27.7473C32.9118 27.397 32.7111 26.9543 32.7111 26.4225C32.7111 25.7792 32.9437 25.2951 33.4056 24.9735C33.8675 24.6519 34.6034 24.4894 35.6133 24.4894H37.9676V26.0881H37.9644ZM44.973 13.5185C44.7341 13.2638 44.4792 13.0281 44.2084 12.8084C42.0357 11.0441 38.9742 10.1588 35.0208 10.1588C33.2272 10.1588 31.389 10.3849 29.5126 10.8308C27.633 11.2798 26.0211 11.9231 24.6767 12.7638L24.9475 13.3243C40.2358 6.63348 41.7968 18.5916 43.5904 22.8239C43.4661 17.2795 44.8137 13.9867 44.973 13.5185ZM124.686 15.8751C123.552 14.0822 121.975 12.681 119.956 11.6715C117.936 10.662 115.626 10.1588 113.017 10.1588C110.408 10.1588 108.105 10.662 106.101 11.6715C104.097 12.681 102.52 14.0822 101.37 15.8751C100.22 17.6681 99.6465 19.7285 99.6465 22.0532C99.6465 24.378 100.22 26.4384 101.37 28.2313C102.52 30.0242 104.097 31.4318 106.101 32.4573C108.105 33.4795 110.411 33.9922 113.017 33.9922C115.623 33.9922 117.936 33.4827 119.956 32.4573C121.975 31.435 123.552 30.0274 124.686 28.2313C125.821 26.4384 126.391 24.378 126.391 22.0532C126.391 19.7285 125.824 17.6681 124.686 15.8751ZM116.257 24.5563C115.919 25.2442 115.473 25.7537 114.913 26.0913C114.352 26.4289 113.721 26.5944 113.02 26.5944C112.319 26.5944 111.689 26.4257 111.128 26.0913C110.567 25.7537 110.118 25.2442 109.784 24.5563C109.446 23.8684 109.28 23.0373 109.28 22.0564C109.28 21.0756 109.449 20.2157 109.784 19.5565C110.121 18.8973 110.567 18.4005 111.128 18.063C111.689 17.7254 112.319 17.5598 113.02 17.5598C113.721 17.5598 114.352 17.7286 114.913 18.063C115.473 18.4005 115.922 18.8973 116.257 19.5565C116.595 20.2157 116.76 21.0501 116.76 22.0564C116.76 23.0627 116.591 23.8716 116.257 24.5563ZM90.9431 13.0727V10.5824H81.902V33.5751H91.4051V23.3621C91.4051 21.5405 91.8606 20.2603 92.7717 19.5151C93.6828 18.7731 94.852 18.4005 96.2824 18.4005C96.6201 18.4005 96.9482 18.4164 97.27 18.4419C97.5917 18.4706 97.9645 18.512 98.385 18.5693V10.162C96.2251 10.162 94.3773 10.611 92.8354 11.5059C92.1091 11.9263 91.4815 12.4517 90.9431 13.0727ZM68.6589 13.181C68.1365 12.4199 67.4993 11.8021 66.7443 11.3371C65.47 10.5537 63.8357 10.1588 61.8446 10.1588C59.8535 10.1588 58.1014 10.6078 56.4193 11.5027C54.7373 12.4008 53.377 13.6746 52.3416 15.3274C51.303 16.9802 50.7869 18.9419 50.7869 21.2125C50.7869 23.4831 51.3062 25.4448 52.3416 27.0976C53.377 28.7504 54.7373 30.0338 56.4193 30.9446C58.1014 31.8554 59.9109 32.3108 61.8446 32.3108C63.7784 32.3108 65.4668 31.9127 66.7443 31.1134C67.289 30.7726 67.7701 30.3491 68.1938 29.8555V30.2949C68.1938 31.8363 67.7733 33.0209 66.9322 33.8457C66.0912 34.6706 64.6895 35.0845 62.7271 35.0845C61.4942 35.0845 60.1817 34.8807 58.7959 34.4763C57.4069 34.0687 56.2664 33.5177 55.368 32.8171L52.1727 39.2914C53.6031 40.2436 55.3107 40.9569 57.3018 41.4346C59.2929 41.9091 61.4209 42.148 63.6924 42.148C68.0919 42.148 71.5261 41.0684 73.995 38.9124C76.4608 36.7533 77.6936 33.4477 77.6936 28.9924V10.5824H68.6525V13.181H68.6589ZM67.7765 23.1487C67.4388 23.7092 66.9768 24.1423 66.3875 24.4512C65.7981 24.7601 65.1259 24.913 64.3677 24.913C63.6095 24.913 62.9724 24.7601 62.3703 24.4512C61.7682 24.1423 61.2903 23.7092 60.9399 23.1487C60.5894 22.5882 60.4142 21.945 60.4142 21.2157C60.4142 20.4864 60.5894 19.8081 60.9399 19.2604C61.2903 18.7126 61.765 18.2922 62.3703 17.9993C62.9724 17.7063 63.6382 17.5566 64.3677 17.5566C65.0973 17.5566 65.7981 17.7031 66.3875 17.9993C66.9768 18.2922 67.4388 18.7126 67.7765 19.2604C68.1142 19.8081 68.2798 20.4578 68.2798 21.2157C68.2798 21.9736 68.111 22.5882 67.7765 23.1487Z" fill="#627326"/>
<path d="M22.4976 14.7287C22.4976 14.7287 40.994 7.25129 43.0552 33.5719H44.1702C44.1702 33.5719 44.7085 7.75764 61.6726 0C59.0125 0 43.7751 1.86935 43.7751 24.4289C40.5002 14.6586 38.079 7.31817 22.4976 14.7287Z" fill="#98A633"/>
</svg>
