<svg width="422" height="471" viewBox="0 0 422 471" fill="none" xmlns="http://www.w3.org/2000/svg">
    <g filter="url(#filter0_b_116_122)">
    <path d="M3 375.608V53C3 25.3858 25.3858 3 53 3H162.722H256.513H369C396.614 3 419 25.3858 419 53V375.315C419 394.376 403.548 409.828 384.487 409.828H346.43C327.419 409.828 310.294 421.321 303.09 438.914C295.886 456.507 278.761 468 259.75 468H161.78C142.261 468 124.525 456.643 116.358 438.914C108.191 421.185 90.4551 409.828 70.9355 409.828H37.2206C18.3211 409.828 3 394.507 3 375.608Z" fill="#98A634"/>
    <path d="M3 375.608V53C3 25.3858 25.3858 3 53 3H162.722H256.513H369C396.614 3 419 25.3858 419 53V375.315C419 394.376 403.548 409.828 384.487 409.828H346.43C327.419 409.828 310.294 421.321 303.09 438.914C295.886 456.507 278.761 468 259.75 468H161.78C142.261 468 124.525 456.643 116.358 438.914C108.191 421.185 90.4551 409.828 70.9355 409.828H37.2206C18.3211 409.828 3 394.507 3 375.608Z" stroke="url(#paint0_linear_116_122)" stroke-opacity="0.15" stroke-width="5"/>
    </g>
    <defs>
    <filter id="filter0_b_116_122" x="-14.5" y="-14.5" width="451" height="500" filterUnits="userSpaceOnUse" color-interpolation-filters="sRGB">
    <feFlood flood-opacity="0" result="BackgroundImageFix"/>
    <feGaussianBlur in="BackgroundImageFix" stdDeviation="7.5"/>
    <feComposite in2="SourceAlpha" operator="in" result="effect1_backgroundBlur_116_122"/>
    <feBlend mode="normal" in="SourceGraphic" in2="effect1_backgroundBlur_116_122" result="shape"/>
    </filter>
    <linearGradient id="paint0_linear_116_122" x1="482.804" y1="896.829" x2="-305.156" y2="41.5107" gradientUnits="userSpaceOnUse">
    <stop stop-color="white"/>
    <stop offset="1" stop-color="white" stop-opacity="0"/>
    </linearGradient>
    </defs>
</svg>