<?xml version="1.0" encoding="UTF-8"?><svg id="Camada_2" xmlns="http://www.w3.org/2000/svg" viewBox="0 0 202.63 202.48"><defs><style>.cls-1{fill:#fff;stroke-width:0px;}</style></defs><g id="Camada_1-2"><path class="cls-1" d="M60.79,195.67v-1.9c0-4.16.03-8.31-.02-12.46,0-.84.24-1.03,1.03-.98,1.13.08,2.27.05,3.4.02.54-.02.69.16.69.7-.02,6.76-.02,13.53,0,20.29,0,.61-.21.74-.77.73-1.68-.03-3.37-.04-5.05,0-.64.02-.97-.21-1.28-.75-2.84-4.88-5.71-9.75-8.6-14.66-.29.28-.16.6-.16.87-.01,4.5-.02,9,0,13.49,0,.76-.11,1.11-.98,1.04-1.13-.09-2.27-.04-3.4-.01-.5.01-.73-.09-.72-.67.02-6.8.02-13.6,0-20.4,0-.58.22-.68.73-.67,1.72.02,3.43.04,5.15,0,.61-.02.9.23,1.19.72,2.69,4.62,5.4,9.22,8.11,13.83.17.28.33.56.5.84.06-.01.11-.02.17-.04h0Z"/><path class="cls-1" d="M9.75,198.39c-.55,0-1.1,0-1.81,0-.78-.1-2.04.43-2.58-.22-.47-.55-.18-1.77-.16-2.69.02-.88-.4-2.05.19-2.56.5-.43,1.63-.14,2.49-.15.82,0,1.65-.03,2.47.02,1.47.1,2.08.69,2.31,2.14.38,2.37-.51,3.42-2.91,3.45h0ZM5.18,184.56c0-.42.19-.52.57-.52.75.01,1.51,0,2.26,0v.03c.75,0,1.51-.04,2.26,0,1.27.09,1.94.81,2.06,2.12.16,1.82-.32,2.81-1.64,3.08-1.69.34-3.41.08-5.12.14-.32.01-.39-.19-.39-.46.01-1.47.02-2.95.01-4.42h0ZM13.56,191.09c-.07-.01-.13-.04-.39-.11.66-.21,1.11-.34,1.56-.51,1.16-.44,2.12-1.09,2.58-2.32,1.46-3.91-.71-7.4-4.85-7.75-.58-.05-1.17-.06-1.75-.06-3.26,0-6.52.03-9.78-.03-.83-.01-.94.28-.93,1,.03,3.84.01,7.69.01,11.53,0,2.81,0,5.63,0,8.44,0,.42-.06.8.59.79,4.05-.04,8.1.03,12.15-.09,1.99-.06,3.94-.76,4.64-2.83,1.26-3.74.9-7.27-3.83-8.06h0Z"/><path class="cls-1" d="M83.62,195.25c-.4,1.75-1.53,2.6-3.32,2.66-1.3.04-2.61,0-3.91.05-.56.02-.7-.18-.69-.71.03-2.03.01-4.05.01-6.08s.02-3.92-.02-5.87c-.01-.63.15-.83.8-.8,1.27.06,2.54,0,3.81.03,1.81.06,2.93.91,3.33,2.66.61,2.68.61,5.39,0,8.07h0ZM89.17,186.21c-.61-3.08-2.47-4.98-5.59-5.55-.84-.15-1.7-.26-2.55-.27-3.3-.04-6.59,0-9.89-.05-.7,0-.85.21-.85.87.03,3.33.01,6.66.01,9.99h0c0,3.33,0,6.66,0,9.99,0,.42-.15.9.6.89,3.64-.05,7.28.07,10.92-.1,4.42-.22,6.64-2.27,7.46-6.65.57-3.03.49-6.09-.11-9.11h0Z"/><path class="cls-1" d="M177.67,185.32c-2.66-.81-5.25-1.29-7.92-1.06-2.83.25-4.15,1.41-4.6,4.22-.32,2.04-.31,4.11.14,6.14.46,2.11,1.62,3.17,3.75,3.54,1.34.23,2.66.14,4,0,.47-.05.55-.23.54-.64-.02-1.2-.03-2.41,0-3.6.02-.55-.18-.71-.71-.69-.86.04-1.72-.03-2.57.02-.61.04-.76-.2-.72-.76.06-.96-.31-2.2.17-2.79.5-.62,1.8-.19,2.75-.21,1.58-.03,3.16,0,4.74-.03.59-.02.84.09.83.77-.04,3.47-.02,6.94-.01,10.4,0,.4-.02.68-.53.82-3.77,1.03-7.55,1.38-11.39.45-3.36-.81-5.41-2.96-6.2-6.29-.68-2.88-.67-5.78-.05-8.67.83-3.82,3.27-6.02,7.04-6.7,3.36-.61,6.69-.4,9.97.61.58.18.82.43.79,1.07-.06,1.09-.02,2.19-.02,3.4h0Z"/><path class="cls-1" d="M21.52,188.52c0-2.44.03-4.88-.02-7.31-.02-.75.22-.92.92-.89,1.23.06,2.47.06,3.71,0,.71-.04.84.23.83.87-.03,4.33-.01,8.65-.01,12.98,0,.48-.01.97.04,1.44.13,1.22.84,2.01,2.03,2.29,1.11.26,2.24.3,3.37.09,1.84-.34,2.54-1.11,2.58-3,.04-2.23.02-4.46.02-6.7,0-2.4.01-4.81,0-7.21,0-.53.07-.8.7-.77,1.37.05,2.75.03,4.12,0,.44,0,.6.11.59.57-.03,5.05.04,10.1-.07,15.14-.06,2.91-1.77,4.96-4.6,5.76-3.17.9-6.38.9-9.55,0-2.88-.82-4.48-2.86-4.58-5.87-.09-2.47-.02-4.94-.02-7.42h-.06Z"/><path class="cls-1" d="M188.38,193.54c1.04-3.21,2.06-6.38,3.16-9.79,1.08,3.43,2.07,6.58,3.08,9.79h-6.24ZM202.56,201.55c-2.44-6.87-4.9-13.73-7.32-20.61-.2-.56-.5-.62-.99-.62-1.75.02-3.51.04-5.26-.01-.7-.02-1.01.18-1.24.85-1.42,4.11-2.89,8.2-4.35,12.29-1.01,2.83-2.03,5.66-3.07,8.58,1.71,0,3.31-.01,4.92,0,.45,0,.57-.22.68-.59.35-1.11.77-2.2,1.1-3.31.16-.54.41-.67.94-.66,2.37.03,4.74.03,7.11,0,.56,0,.77.21.92.69.33,1.08.7,2.15,1.06,3.22.1.3.12.67.62.66,1.64-.03,3.28,0,4.96,0-.03-.22-.03-.36-.08-.48h0Z"/><path class="cls-1" d="M93.55,191.21c0-3.33.02-6.66-.02-9.99,0-.72.18-.91.9-.9,4.5.03,9,.03,13.49,0,.65,0,.94.13.86.84-.11,1.08.45,2.53-.23,3.15-.6.54-2.02.17-3.08.17-1.92.01-3.85.02-5.77,0-.57,0-.79.13-.76.74.05,1.03.04,2.06,0,3.09-.02.58.16.76.75.75,2.2-.03,4.4.01,6.59-.03.68-.01.9.17.85.85-.06.82-.06,1.65,0,2.47.04.65-.18.81-.81.8-2.13-.04-4.26.03-6.39-.04-.85-.03-1.05.26-1,1.04.06.96.05,1.92,0,2.88-.03.66.15.88.85.87,2.78-.04,5.56,0,8.34-.03.64,0,.92.11.87.83-.07.85-.05,1.72,0,2.57.03.55-.09.77-.71.77-4.67-.03-9.34-.03-14.01,0-.71,0-.75-.28-.75-.84.02-3.33,0-6.66,0-9.99h0Z"/><path class="cls-1" d="M127.34,185.27c-1.77-.56-3.46-.94-5.21-1.08-1.1-.09-2.2-.1-3.28.14-1.15.26-1.67.93-1.71,2.12-.03,1.12.34,1.69,1.51,2,1.52.4,3.07.69,4.61,1.04,3.83.85,4.99,2.28,4.96,6.1-.03,3.59-1.71,5.74-5.14,6.4-3.42.66-6.83.42-10.18-.54-.54-.16-.71-.39-.69-.93.04-.93.04-1.85,0-2.78-.03-.64.16-.74.77-.56,2.38.74,4.82,1.05,7.31.93,1.97-.1,2.79-.89,2.76-2.56-.02-.96-.45-1.57-1.37-1.79-1.46-.35-2.94-.66-4.41-.99-.37-.08-.74-.15-1.1-.24-2.79-.73-3.87-2-4.17-4.88-.47-4.39,1.7-7.14,6.1-7.64,2.86-.32,5.68-.08,8.45.76.66.2.85.5.81,1.14-.05,1.06-.01,2.13-.01,3.35h0Z"/><path class="cls-1" d="M132.02,191.21c0-3.33.02-6.66-.02-9.99,0-.72.18-.94.91-.9,1.23.06,2.47.06,3.7,0,.69-.03.85.19.85.85-.03,5.25,0,10.5-.03,15.75,0,.8.19,1.02,1,1,2.47-.06,4.94.02,7.41-.04.81-.02.98.23.93.97-.08,1.02.35,2.41-.17,2.97-.59.65-2,.19-3.05.2-3.53.02-7.07-.02-10.6.03-.81.01-.94-.24-.93-.97.04-3.29.02-6.59.02-9.88h0Z"/><path class="cls-1" d="M150.15,191.2c0-3.33.02-6.66-.02-9.99,0-.74.21-.92.92-.89,1.27.06,2.54.03,3.81,0,.49,0,.73.07.73.66-.02,6.8-.02,13.6,0,20.4,0,.57-.2.68-.71.67-1.34-.03-2.68-.04-4.02,0-.61.02-.73-.19-.72-.76.03-3.36.01-6.73.01-10.1h0Z"/><path class="cls-1" d="M202.42,1.27c0-1.04-.24-1.27-1.27-1.27C134.63.03,68.12.03,1.61,0,.57,0,.34.25.34,1.28c.03,53.04.03,106.09,0,159.13,0,1.04.25,1.27,1.28,1.27,33.26-.03,66.51-.03,99.77-.03s66.51,0,99.77.03c1.04,0,1.27-.24,1.27-1.27-.03-53.04-.03-106.09,0-159.13ZM166.4,86.01c-.36.27-.77.44-.84,1.11-.06.51-.9.95-1.61.66-.59-.24-.83-.16-.95.48-.1.55-1.19,1.14-1.6.83-.47-.35-.76-.1-1.1.06-2.09.95-4.18,1.9-6.25,2.89-.58.27-1.3.32-1.4,1.32-.04.44-.91.96-1.61.48-.64-.43-.9-.22-1.02.44-.15.84-1.15,1.32-1.8.78-.32-.26-.5-.08-.72-.03-1.96.44-3.26-.42-3.63-2.43-.16-.88-.3-1.76-.41-2.64-.11-.85-.56-1.21-1.4-1.37-4-.75-8.02-1.09-12.09-1.04-3.5.04-7,.32-10.5-.12-2.28-.28-4.43-.83-6.32-2.22-1.48-1.09-3.17-1.5-5.03-1.52-5.05-.06-10.1-.21-15.14-.36-.63-.02-1.07.04-1.13.79-.05.62-.51.59-.98.59-6.35-.05-12.71-.09-19.06-.12-2.29-.01-4.57,0-6.92.13,1.06.52,2.1,1.07,3.17,1.56.46.21.67.49.72,1,.37,3.55.75,7.1,1.18,10.64.08.64-.18.8-.7.84-.59.05-.68.37-.62.91.52,4.75.7,9.52.83,14.29.07,2.85-1.06,4.95-3.45,6.45-1.48.93-3,1.79-4.55,2.61-.39.21-.84.3-.52.94.28.56-.32.59-.61.72-4.34,2.05-8.84,3.72-13.35,5.35-5.64,2.04-11.32,3.96-16.71,6.62-4.25,2.1-8.19,4.63-11.1,8.49-.58.76-1.07,1.59-1.55,2.42-.53.91-1.31,1.07-2.21.81-.86-.24-1.43-.8-1.44-1.77,0-.55.01-1.1,0-1.65,0-.22.08-.45-.13-.66-.76-.74-.64-1.33.09-2.12.45-.49.66-1.39.32-2.18-.3-.71-.02-1.55.67-1.82.17-.06.31-.1.39-.25.88-1.86,2.5-3.17,3.61-4.87.35-.54.79-1.01.47-1.84-.18-.46.05-1.19.77-1.49.52-.21.7-.7.58-1.25-.18-.86.2-1.52,1.02-1.71.1-.02.23.01.29-.04,1.56-1.41,3.04-.78,4.62.05,3.1,1.62,5.83,1.19,8.51-1.23,3.07-2.76,6.03-5.63,9.21-8.25,2.12-1.75,4.32-3.39,6.85-4.52,1-.45,2.05-.77,3.25-.87-1.6-3.73-3.09-7.34-4.11-11.12-.06-.23-.14-.46-.17-.7-.09-.73-.38-1.19-1.21-1.18-.62,0-.96-.35-1.14-.96-2.61-8.87-4.31-17.87-4.04-27.17.02-.68.04-1.37.29-2.09-.6-.13-.92.39-1.43.42-.32-.66-.27-1.39-.22-2.09.63-9,2.14-17.83,5.08-26.39.41-1.19,1.01-1.99,2.29-2.34,1.08-.29,2.09-.82,3.34-1.32-1.64-.36-3.13-.29-4.59-.43-2.73-.26-5.48-.42-8.21-.65-.59-.05-1.02.08-1.48.48-4.44,3.85-8.87,7.7-13.37,11.47-1.01.85-1.63,1.85-1.94,3.05-.25.95-.81,1.59-1.53,2.21-1.99,1.7-4.19,2.84-6.82,3.08-.76.07-1.52.05-2.23-.25-1.05-.45-1.12-1.1-.21-1.79,1.1-.82,2.31-1.5,3.25-2.52.16-.17.3-.36.49-.59-.41-.21-.62.1-.86.2-.98.41-1.95.83-3.04.91-.52.03-.86-.12-.98-.67-.12-.55.05-.94.58-1.15.45-.18.89-.36,1.34-.53,1.52-.56,2.77-1.46,3.72-2.8.89-1.24,2.08-2.1,3.66-2.24.52-.05.67-.43.91-.73,4.28-5.46,8.57-10.91,13.2-16.08,1.1-1.23,2.38-1.85,3.98-1.74.7.05,1.04-.18,1.08-.83.04-.82.54-.98,1.23-1.03,6.3-.55,12.61-.95,18.93-.44,2.02.16,4.03.4,5.98.98.61.18.83.12.83-.61,0-1.69.29-3.34.89-4.93,1.71-4.52,6.03-7.02,10.77-6.09,3.27.64,6.04,2.24,8.12,4.88,1.37,1.74,2.01,3.61.95,5.82-.84,1.76-.82,3.67-.54,5.56.21,1.38.36,2.66-1.23,3.41-.33.16-.54.61-.76.95-.67,1.04-1.16,2.17-1.66,3.3-.84,1.92-.85,1.91-2.99,1.73-1.16-.09-2.53-.54-3.42-.09-.91.46-1.1,1.96-1.57,3.02-2.58,5.8-4.85,11.72-6.1,17.97-.05.24-.05.49-.13.71-.25.69.02.85.69.92,6.93.75,13.82,1.79,20.72,2.75.54.08,1.09.21,1.63.23,1.02.03,1.82.27,1.91,1.48.03.41.35.43.67.48,5.07.77,10.01,2.02,14.7,4.14.68.31,1.42.21,2.13.26,1.95.13,3.92-.02,5.8.69.15.06.41.09.48,0,.72-.81,1.45-.26,2.15-.03,4.66,1.53,9.1,3.63,13.59,5.58,8.79,3.83,17.97,5.85,27.56,6.03,1.17.02,2.33.11,3.5.19.77.06,1.35.45,1.75,1.12.37.62.35,1.14-.27,1.61ZM179.92,79.86c-6.2-.02-11.16-5-11.16-11.21s4.99-11.2,11.07-11.19c6.34.01,11.43,5.06,11.36,11.26-.07,6.2-5.09,11.16-11.27,11.14Z"/></g></svg>