<?xml version="1.0" encoding="UTF-8"?><svg id="Camada_2" xmlns="http://www.w3.org/2000/svg" viewBox="0 0 326.49 81.57"><defs><style>.cls-1{fill:#fff;stroke-width:0px;}</style></defs><g id="Camada_1-2"><path class="cls-1" d="M0,81.32h46.16l40.85-38.91s9.64-11.25,25.27-11.25h125.54L269.25.09H112.71s-26.99-1.14-43.27,13.71C53.16,28.65,0,81.32,0,81.32h0Z"/><path class="cls-1" d="M54.47,81.32h42.74l11.9-11.73s5.93-5.81,14.79-5.81h80.87l28.57-28.48h-115.01s-15.29-.65-24.52,7.77c-9.22,8.41-39.34,38.25-39.34,38.25h0Z"/><polygon class="cls-1" points="245.45 81.25 194.89 81.25 275.93 0 326.49 0 245.45 81.25 245.45 81.25"/><polygon class="cls-1" points="269.36 81.57 269.36 73.37 266.29 73.37 266.29 71.7 274.51 71.7 274.51 73.37 271.45 73.37 271.45 81.57 269.36 81.57 269.36 81.57"/><polygon class="cls-1" points="275.83 81.57 275.83 71.7 278.95 71.7 280.83 78.43 282.68 71.7 285.81 71.7 285.81 81.57 283.87 81.57 283.87 73.8 281.82 81.57 279.81 81.57 277.77 73.8 277.77 81.57 275.83 81.57 275.83 81.57"/></g></svg>