<?xml version="1.0" encoding="UTF-8"?><svg id="Camada_2" xmlns="http://www.w3.org/2000/svg" viewBox="0 0 175.65 246.55"><defs><style>.cls-1{fill:#fff;stroke-width:0px;}</style></defs><g id="Camada_1-2"><path class="cls-1" d="M40.23,77.25c0,5.79,1.2,11.22,3.28,15.86l-36.03,13.51c-3.11-8.83-4.85-18.63-4.85-28.94,0-14.37,3.36-27.73,9.14-38.89l33.71,18.85c-3.29,5.36-5.26,12.18-5.26,19.61h0Z"/><path class="cls-1" d="M47.82,118.08c4.55,3.58,9.56,5.99,14.5,7.23l-11.65,36.67c-8.87-3.01-17.64-7.71-25.74-14.08-11.29-8.88-19.72-19.79-24.92-31.23l35.65-14.84c2.18,5.9,6.32,11.66,12.16,16.26h0Z"/><path class="cls-1" d="M83.85,137.87c5.65-1.3,10.66-3.68,14.73-6.75l21.23,32.09c-7.91,5.01-17.08,8.89-27.12,11.2-14,3.21-27.78,2.93-39.95-.21l10.83-37.07c5.95,2.01,13.05,2.4,20.29.74h0Z"/><path class="cls-1" d="M71.56,43.06c5.01-2.91,10.31-4.59,15.37-5.11L80.56,0c-9.21,1.74-18.55,5.15-27.47,10.32-12.43,7.2-22.31,16.82-29.07,27.41l33.21,19.71c2.99-5.53,7.9-10.66,14.33-14.38h0Z"/><path class="cls-1" d="M114.35,49.28c5.46,1.92,10.18,4.86,13.87,8.37l24.71-29.49c-7.3-5.87-15.96-10.76-25.69-14.19-13.55-4.77-27.28-6.04-39.72-4.3l6.58,38.05c6.14-1.32,13.23-.91,20.24,1.55h0Z"/><path class="cls-1" d="M120.42,125.93c-3.11,4.89-7.03,8.83-11.28,11.63l23.16,30.73c7.37-5.79,14.08-13.13,19.61-21.83,7.7-12.13,12.04-25.21,13.14-37.73l-38.56-2.17c-.1,6.28-2.09,13.1-6.08,19.37h0Z"/><path class="cls-1" d="M135.61,85.41c1.72,5.53,2.18,11.07,1.57,16.12l38.41,2.23c.36-9.36-.89-19.23-3.95-29.08-4.26-13.72-11.43-25.49-20.26-34.44l-26.6,27.99c4.73,4.14,8.63,10.07,10.83,17.17h0Z"/><path class="cls-1" d="M108.04,103.36c-.58-.38-1.32-.41-1.93-.09l-5.68,3.02-6.93-7.18,4.85-13.28-11.26-8.35-11.81,8.22-9.07-4.6,1.22-6.32c.13-.68-.12-1.37-.65-1.81l-.89-.73c2.78-3.52,6.39-6.32,10.52-8.1l1.3,1.76c.31.42.77.69,1.29.75l6.62.82,1.47,10.02,1.09-10.2,6.35-1.06c.68-.11,1.25-.59,1.48-1.24l.4-1.13c4.4,1.74,8.24,4.64,11.17,8.33l-.87.75c-.52.45-.76,1.15-.61,1.83l1.34,6.29-9.07,4.83,9.84-2.39,3.18,5.86c.25.45.67.79,1.17.92l.99.27c-.18,5.03-1.68,9.71-4.16,13.69l-1.36-.89h0ZM79.15,99.21l14.29.05.02-.05,4.83,8.5-4.76,4.67c-.37.36-.58.86-.56,1.38l.04,2.49c-2,.49-4.1.75-6.25.75-2.7,0-5.3-.41-7.76-1.17l.35-1.22c.19-.66,0-1.38-.49-1.86l-4.59-4.51,4.9-9.03-6.89,7.41-5.88-3.13c-.46-.24-1-.29-1.49-.13l-1.09.36c-2.24-3.8-3.61-8.2-3.83-12.91l1.3-.38c.5-.14.91-.49,1.15-.95l3.06-5.92,9.76,2.16-.03.02M86.76,59.31c-16.27,0-29.46,13.52-29.46,30.21s13.19,30.21,29.46,30.21,29.46-13.52,29.46-30.21-13.19-30.21-29.46-30.21h0Z"/><polygon class="cls-1" points="23.9 226.38 23.9 234.62 1.8 234.62 1.8 195.99 11.61 195.99 11.61 226.38 23.9 226.38 23.9 226.38"/><polygon class="cls-1" points="87.18 226.38 87.18 234.62 65.09 234.62 65.09 195.99 74.9 195.99 74.9 226.38 87.18 226.38 87.18 226.38"/><path class="cls-1" d="M42.69,227.66c-4.44,0-8.04-3.6-8.04-8.04s3.6-8.04,8.04-8.04c3.46,0,6.42,2.19,7.55,5.27.32.86.49,1.8.49,2.77s-.17,1.91-.49,2.77c-1.13,3.08-4.08,5.27-7.55,5.27h0ZM50.24,203.05v3.93c-2.63-2.45-6.03-3.93-9.75-3.93-8.31,0-15.05,7.37-15.05,16.47s6.74,16.47,15.05,16.47c3.72,0,7.13-1.48,9.75-3.93v2.56h9.61v-31.57h-9.61Z"/><path class="cls-1" d="M158.49,227.66c-4.44,0-8.04-3.6-8.04-8.04s3.6-8.04,8.04-8.04c3.46,0,6.42,2.19,7.55,5.27.32.86.49,1.8.49,2.77s-.17,1.91-.49,2.77c-1.13,3.08-4.08,5.27-7.55,5.27h0ZM166.04,203.05v3.93c-2.63-2.45-6.03-3.93-9.75-3.93-8.31,0-15.05,7.37-15.05,16.47s6.74,16.47,15.05,16.47c3.72,0,7.13-1.48,9.75-3.93v2.56h9.61v-31.57h-9.61Z"/><path class="cls-1" d="M129.05,221.17c-.05.16-.1.32-.16.48-.62,1.69-1.83,3.1-3.38,3.98-1.1.63-2.38.98-3.74.98-1.11,0-2.17-.24-3.12-.67-1.95-.88-3.45-2.55-4.11-4.61-.23-.72-.36-1.5-.36-2.3,0-4.18,3.39-7.58,7.58-7.58,3.27,0,6.05,2.07,7.12,4.97.3.82.46,1.69.46,2.61,0,.74-.11,1.46-.3,2.14h0ZM128.9,203.41v3.7c-2.48-2.31-5.69-3.7-9.2-3.7-7.84,0-14.19,6.95-14.19,15.53s6.35,15.53,14.19,15.53c3.51,0,6.72-1.39,9.2-3.7v2.41h0c-.67,3.07-3.35,5.37-6.56,5.37-2.11,0-3.99-.99-5.22-2.55h-10.73c1.54,6.04,7.94,10.56,15.6,10.56,8.81,0,15.96-5.99,15.96-13.38v-29.76h-9.06Z"/><polygon class="cls-1" points="101.61 234.62 92 234.62 92 203.05 101.61 203.05 101.61 234.62 101.61 234.62"/><path class="cls-1" d="M102.62,195.74c0,3.25-2.63,5.88-5.88,5.88s-5.88-2.63-5.88-5.88,2.63-5.88,5.88-5.88,5.88,2.63,5.88,5.88h0Z"/></g></svg>