<?xml version="1.0" encoding="UTF-8"?><svg id="Camada_2" xmlns="http://www.w3.org/2000/svg" viewBox="0 0 160.95 271.63"><defs><style>.cls-1{fill:#fff;stroke-width:0px;}</style></defs><g id="Camada_1-2"><path class="cls-1" d="M93.75,240.93c-3.58,0-6.38,2.79-6.42,6.39-.03,3.52,2.95,6.51,6.49,6.48,3.53-.02,6.32-2.9,6.31-6.51,0-3.65-2.73-6.37-6.39-6.36h0ZM100.55,235.2h5.9v1.02c0,7.25.02,14.5-.01,21.75-.01,2.37-.18,4.74-1.26,6.92-1.69,3.4-4.59,5.35-8.13,6.19-5.52,1.31-10.65.37-15.07-3.44-.46-.4-.57-.64-.17-1.17,1.12-1.47,2.16-2.98,3.22-4.44,1.12.73,2.1,1.51,3.19,2.07,2.52,1.32,5.17,1.44,7.85.52,2.4-.82,3.71-2.72,3.71-5.25,0-.6,0-1.2,0-1.99-1.45,1.36-2.97,2.26-4.76,2.61-5.52,1.09-11.04-1.79-13.41-6.97-3.52-7.72.6-16.13,8.87-17.95,3.43-.75,6.52-.05,8.91,2.73.09.11.22.18.41.33.27-1.04.51-1.99.75-2.93h0Z"/><path class="cls-1" d="M65,240.93c-3.53-.18-6.6,2.86-6.42,6.79.15,3.27,2.96,6.09,6.37,6.09,3.49,0,6.31-2.86,6.31-6.41,0-3.75-2.64-6.47-6.26-6.47h0ZM71.17,238.33c.27-1.14.5-2.11.74-3.12h5.82v24.36c-1.81,0-3.63.01-5.45-.02-.17,0-.41-.3-.47-.5-.23-.75-.4-1.52-.59-2.28-.08,0-.17-.02-.19,0-3.41,4.42-10.1,4.33-14.33,1.05-5.8-4.49-6.9-12.45-2.45-18.3,2.99-3.93,8.35-5.66,12.94-4.17,1.61.52,2.91,1.46,3.98,2.99h0Z"/><path class="cls-1" d="M143.13,244.67h11.08c-.41-2.61-3.06-4.44-6.06-4.23-2.56.18-4.94,2.17-5.01,4.23h0ZM160.93,249.62h-17.97c.8,4.68,7.77,6.64,12.45,2.02,1.42,1.27,2.84,2.53,4.3,3.84-2.11,2.43-4.6,3.84-7.54,4.41-4.24.82-8.23.21-11.7-2.55-2.6-2.07-3.94-4.83-4.35-8.12-.43-3.41.27-6.54,2.22-9.33,2.4-3.44,5.8-5.12,9.98-5.3,5.94-.27,10.95,3.61,12.2,9.24.21.94.33,1.91.4,2.88.07.93.01,1.87.01,2.93h0Z"/><path class="cls-1" d="M42.5,244.67c-.7-2.78-3.13-4.42-6.09-4.23-2.54.16-4.83,2.06-5.06,4.23h11.15ZM31.11,249.6c.6,2.16,1.84,3.5,3.75,4.21,2.15.8,5.92.72,8.94-2.34.69.68,1.35,1.38,2.06,2.04.7.64,1.44,1.22,2.2,1.87-2,2.3-4.22,3.66-6.84,4.31-4.4,1.1-8.58.61-12.28-2.17-2.6-1.95-4.06-4.62-4.52-7.84-.61-4.21.37-7.95,3.23-11.14,2.06-2.3,4.7-3.54,7.71-3.88,4.02-.46,7.61.6,10.46,3.59,2.07,2.17,3.11,4.82,3.27,7.8.05.88-.04,1.77.02,2.65.05.74-.23.92-.94.92-5.06-.03-10.12-.01-15.17-.01h-1.89Z"/><path class="cls-1" d="M0,223.48h7.01v29.24h15.7v6.8H0v-36.04h0Z"/><path class="cls-1" d="M116.4,235.21c0,.7,0,1.33,0,1.97.05,4.02.02,8.04.19,12.05.11,2.74,1.91,4.39,4.62,4.58,2.65.18,4.87-1.44,5.43-3.99.13-.59.19-1.2.19-1.8.02-4.23,0-8.47,0-12.77h6.73v.73c0,4.39.1,8.78-.03,13.16-.12,4.07-1.67,7.55-5.44,9.47-4.89,2.5-9.79,2.34-14.34-.93-2.5-1.8-3.73-4.48-3.87-7.45-.23-4.86-.14-9.74-.18-14.62,0-.12.04-.23.07-.39h6.62Z"/><path class="cls-1" d="M76.68,198.11c2.74-5.12,10.08-4.68,13.07.12.4-.46.78-.91,1.19-1.34,2.47-2.57,5.52-2.94,8.74-2.06,3.07.83,4.9,3.05,5.7,6.08.26.99.37,2.04.37,3.06.04,4.81.02,9.63.02,14.44v.96h-6.73v-.95c0-4.54,0-9.08,0-13.62,0-2.86-2.18-4.54-4.94-3.86-1.73.43-2.77,1.84-2.77,3.79,0,4.57,0,9.14,0,13.71v.94h-6.73v-1c0-4.42,0-8.84,0-13.25,0-1.18-.25-2.3-1.09-3.19-1.21-1.27-2.68-1.43-4.27-.88-1.49.51-2.29,1.65-2.32,3.16-.08,4.11-.05,8.23-.07,12.34,0,.91,0,1.82,0,2.8h-6.65v-24.23c1.83,0,3.68-.02,5.52.03.15,0,.36.42.43.67.2.72.34,1.45.54,2.29h0Z"/><path class="cls-1" d="M7.11,189.15v11.27c1.73,0,3.4,0,5.07,0,.36,0,.72-.1,1.07-.18,2.68-.59,4.3-2.63,4.3-5.42,0-2.85-1.54-4.93-4.31-5.35-1.99-.3-4.04-.22-6.13-.31h0ZM7.08,219.4H0v-36.99c.27-.01.56-.04.85-.04,3.47,0,6.94-.04,10.41.01,2.4.03,4.77.34,6.99,1.37,4.02,1.87,6.2,5.08,6.68,9.4.29,2.58.02,5.16-1.19,7.54-1.99,3.91-5.32,5.94-9.55,6.41-2.31.26-4.67.05-7.11.05v12.24h0Z"/><path class="cls-1" d="M125.65,204.57h11.18c-.62-2.64-2.9-4.32-5.66-4.23-2.91.1-5.14,1.79-5.53,4.23h0ZM138.09,211.44c1.37,1.35,2.71,2.67,4.23,4.16-1.09.85-2.08,1.78-3.22,2.49-5,3.13-11.91,2.64-16.43-1.16-2.12-1.79-3.37-4.16-3.84-6.86-.71-4.01.01-7.74,2.6-10.98,2.15-2.7,4.99-4.13,8.42-4.54,3.4-.4,6.46.37,9.13,2.49,2.82,2.24,4.21,5.27,4.46,8.83.06.91-.03,1.83.02,2.74.05.73-.22.92-.94.92-5.24-.03-10.48-.01-15.72-.01h-1.31c.49,1.99,1.63,3.35,3.41,4.03,3.51,1.36,6.52.3,9.19-2.13h0Z"/><path class="cls-1" d="M60.68,204.6c-.3-2.4-2.76-4.29-5.49-4.26-2.94.03-5.33,1.83-5.62,4.26h11.11ZM49.38,209.53c.52,2.02,1.67,3.35,3.46,4.06,2.87,1.12,5.53.54,7.99-1.19.42-.3.8-.65,1.12-.92,1.4,1.33,2.79,2.64,4.19,3.98-1.92,2.18-4.23,3.56-6.96,4.2-4.36,1.03-8.46.45-12.07-2.3-2.9-2.2-4.32-5.24-4.57-8.85-.23-3.2.43-6.18,2.31-8.79,2.21-3.07,5.23-4.77,9.02-5.16,3.47-.36,6.55.49,9.24,2.71,2.33,1.92,3.63,4.44,4.07,7.39.19,1.25.14,2.54.21,3.82.04.77-.21,1.11-1.09,1.1-5.24-.05-10.47-.02-15.71-.02h-1.2Z"/><path class="cls-1" d="M151.99,195.17c.22,1.04.45,2.09.71,3.3.2-.25.35-.4.46-.58,1.54-2.37,4.35-3.54,7.11-2.93.2.04.5.31.51.47.03,2,.02,4.01.02,5.93-1.29,0-2.53-.17-3.7.03-2.51.44-4.15,2.56-4.15,5.13-.01,3.9,0,7.8,0,11.7v1.14h-6.67v-24.2h5.71Z"/><path class="cls-1" d="M34.06,219.38h-6.64v-24.2h5.72c.22,1.02.45,2.07.7,3.26.19-.23.35-.38.47-.56,1.62-2.41,4.3-3.53,7.11-2.92.21.05.52.36.52.55.04,1.98.02,3.95.02,5.75-1.44.08-2.83-.02-4.13.26-2.18.47-3.69,2.47-3.72,4.72-.05,3.99-.04,7.98-.06,11.97,0,.36,0,.72,0,1.17h0Z"/><path class="cls-1" d="M109.22,195.12c2.07,0,4.08,0,6.08,0,.15,0,.29.02.49.04v24.19h-6.58v-24.23h0Z"/><path class="cls-1" d="M116.77,187.73c-.02,2.3-1.81,4.1-4.13,4.05-2.42-.06-4.24-1.86-4.12-4.25.11-2.3,1.86-4.14,4.13-4.06,2.85.1,4.29,2.32,4.12,4.25h0Z"/><path class="cls-1" d="M130.36,100.41c2.46-4.64,2.71-9.5,2.11-14.45-.38-3.17-1.2-6.25-2.51-9.11-2.07,1.43-4.03,2.82-6.03,4.14-.48.32-.63.63-.62,1.17.02,2.59.04,5.18,0,7.77-.01.73.2,1.25.71,1.77,2.05,2.12,4.01,4.32,5.42,6.95.3.56.59,1.12.92,1.77h0ZM100.79,108.9c.09.22.13.37.19.49,1.43,2.71,2.85,5.42,4.32,8.11.11.21.59.39.83.32,3.39-.93,6.54-2.39,9.33-4.55.42-.32.78-.7,1.17-1.06.11.02.22.03.33.05.38,3.41.76,6.82,1.15,10.23.02,0,.16-.05.28-.14.37-.26.75-.52,1.09-.82,3.94-3.37,6.17-7.73,7.33-12.7.15-.66.09-1.44-.1-2.11-.6-2.16-1.66-4.1-3.05-5.85-.24-.3-.74-.54-1.12-.55-1.95-.03-3.9,0-5.84.06-.33,0-.71.17-.98.37-1.34.99-2.62,2.08-4,3.02-3.33,2.28-6.69,4.51-10.94,5.1h0ZM117.88,85.99c0-1.34-.02-2.68,0-4.02.01-.56-.15-.83-.71-1.05-2.67-1.03-5.13-2.47-7.47-4.12-.39-.27-1.01-.37-1.5-.32-.74.08-1.47.32-2.19.56-6.16,2.04-11.49,5.54-16.57,9.47-.17.14-.24.67-.12.9,2.37,4.54,4.77,9.06,7.19,13.57.14.26.52.51.81.55,1.75.24,3.44-.19,5.05-.8,5.74-2.16,10.5-5.89,15.13-9.78.23-.19.34-.63.35-.95.04-1.34.02-2.68.02-4.02h0ZM127.39,53.2c-5.83-5.59-12.06-10.26-19.32-13.75-.5,2.54-.75,5-2.15,7.09-2.44-1.62-4.83-3.28-7.3-4.81-2.01-1.24-4.11-2.34-6.18-3.48-.74-.41-1.49-.6-2.41-.44-7.18,1.27-13.88,3.64-19.69,8.19-.14.11-.27.24-.42.36-.12.09-.25.18-.46.32,1.12.97,2.15,1.86,3.27,2.83-4.34,1.5-7.76,4.14-10.76,7.68,1.79.28,3.4.54,5.01.77.51.07.77.2.83.81.62,6.77,7.07,10.86,11.69,11.63,3.05.51,6.12.36,9.19.24,4.86-.18,9.73-.27,14.4,1.47.04.02.1-.02.27-.07-1.39-1.51-2.69-3.03-4.11-4.43-2.02-1.98-4.11-3.89-6.22-5.77-.37-.33-.96-.56-1.46-.59-2.39-.17-4.79-.33-7.18-.35-2.54-.02-4.93-.55-7.18-1.7-1.32-.68-2.6-1.44-3.97-2.21,2.85-2.62,6.02-4.42,9.66-5.43,1.24-.34,2.35-.13,3.51.31,3.14,1.17,6.13,2.63,8.89,4.58,1.77-1.58,3.71-2.74,6.22-2.92-.54.86-1.09,1.6-1.5,2.42-.59,1.18-.98,2.43-.62,3.77.08.3.25.61.46.83,3.03,3.17,6.08,6.31,9.09,9.49.38.4.61.48,1.12.24,2-.95,4.16-1.34,6.33-1.47,3.19-.19,6.39-.16,9.48.85.66.22,1.29.5,2.06.65-.85-.9-1.65-1.87-2.57-2.7-2.21-1.96-4.49-3.83-6.71-5.77-.4-.35-.7-.82-.99-1.26-1.33-2.03-2.64-4.07-3.97-6.11,2.19.73,4.14,2.02,5.96,3.49.88-.69,1.65-1.5,2.59-1.99,2.48-1.29,2.38-1.48,4,1.13.45.73.65,1.62.91,2.46.18.57,0,1.07-.48,1.46-.47.38-.93.78-1.46,1.22,1.78,1.93,3.56,3.86,5.52,5.98.21-1.49.39-2.77.6-4.25,6.47,9.27,11.36,19.05,13.59,30.04,2.49,12.28,1.2,24.27-2.8,36.17-1.94-2.14-3.79-4.19-5.83-6.44-1.95,18.42-10.68,32.48-25.94,42.69-.42-1.61-.83-3.14-1.22-4.68-.4-1.54-.78-3.09-1.17-4.68-1.62,1.01-3.13,2.02-4.71,2.92-6.13,3.51-12.68,5.83-19.65,6.98-4.56.76-9.14.94-13.72.48-6.09-.61-11.85-2.37-17.26-5.28-.5-.27-.62-.58-.53-1.08.57-3.25,1.19-6.49,1.69-9.75.81-5.27,1.08-10.58.73-15.91-.31-4.65-1.17-9.18-2.58-13.88-5.87,8.8-12.22,16.96-20.54,23.5-1.39-2.28-2.32-4.67-3.07-7.12-1.26-4.1-1.98-8.3-2.42-12.56-.48-4.58-.66-9.17-.45-13.76.16-3.66.41-7.33,1.4-11.08-4.12,1.27-8.13,2.51-12.43,3.83,1.58-13.48,6.56-25.31,14.71-36.02-2.45-.41-4.92-.81-7.49-1.24,5.31-10.65,12.63-19.41,22.19-26.46-4.05,9.45.99,17.7,5.52,19.46-.54-1.32-1.13-2.6-1.59-3.93-1.02-2.98-1.4-6.06-.73-9.15,1.24-5.78,5.96-8.39,11.68-6.49,1.48.49,2.86,1.29,4.23,1.92-.06-2.8-4.31-6.46-9.27-7.99,2.67-1.12,5.31-2.33,8.03-3.33,5.04-1.86,10.24-3.06,15.58-3.73,5-.62,10.01-.67,15.02-.29.73.06,1.48.53,2.14.94,3.05,1.89,5.62,4.35,8,7.01.34.38.67.76,1.13,1.28-.08-2.83-.69-5.29-1.88-7.95,2.72.89,5.23,1.64,7.69,2.53,4.45,1.63,8.56,3.89,12.19,6.96.82.7,1.63,1.34,1.75,2.6.33,3.66,1.69,7.04,3.12,10.39.31.72.6,1.44.97,2.32h0Z"/><path class="cls-1" d="M106.07,25.08c-19.71-5.09-38.5-2.91-56.42,6.91-2.19-6.31-4.7-12.43-8.97-17.93,4.76,2.17,8.85,4.93,12.86,8.2-.9-5.68-1.76-11.14-2.65-16.81,5.96,4.12,11.74,8.13,17.64,12.22,2.01-5.89,3.98-11.68,6.02-17.65,3.32,5.34,6.54,10.52,9.86,15.86,4.8-5.3,9.53-10.51,14.4-15.88.39,5.69.77,11.21,1.17,17,3.21-4.13,6.6-7.76,10.76-10.95-2.86,6.15-3.92,12.49-4.66,19.04h0Z"/></g></svg>