<?xml version="1.0" encoding="UTF-8"?><svg id="Camada_2" xmlns="http://www.w3.org/2000/svg" viewBox="0 0 35.04 34.66"><defs><style>.cls-1{fill:#fff;stroke-width:0px;}</style></defs><g id="Camada_1-2"><path class="cls-1" d="M7.48,27.98l9.08-1.85,17.65-17.64c1.1-1.1,1.1-2.89,0-3.99l-3.24-3.24c-1.1-1.1-2.89-1.1-3.99,0L9.33,18.9l-1.85,9.08ZM28.45,2.73c.29-.29.76-.29,1.05,0l3.24,3.24c.29.29.29.76,0,1.05l-1.79,1.79-4.3-4.3,1.79-1.79ZM11.24,19.93l13.95-13.95,4.3,4.3-13.95,13.95-5.39,1.1,1.1-5.39Z"/><path class="cls-1" d="M32.58,28.11c0,2.47-2.01,4.47-4.47,4.47H6.55c-2.47,0-4.47-2.01-4.47-4.47V6.55c0-2.47,2.01-4.47,4.47-4.47h14.86V0H6.55C2.94,0,0,2.94,0,6.55v21.56c0,3.61,2.94,6.55,6.55,6.55h21.56c3.61,0,6.55-2.94,6.55-6.55v-10.78h-2.08v10.78Z"/></g></svg>