<?xml version="1.0" encoding="UTF-8"?><svg id="Camada_2" xmlns="http://www.w3.org/2000/svg" xmlns:xlink="http://www.w3.org/1999/xlink" viewBox="0 0 52.67 38.35"><defs><style>.cls-1{fill:url(#Gradiente_sem_nome_8-16);}.cls-1,.cls-2,.cls-3,.cls-4,.cls-5,.cls-6,.cls-7,.cls-8,.cls-9,.cls-10,.cls-11,.cls-12,.cls-13,.cls-14,.cls-15,.cls-16,.cls-17,.cls-18,.cls-19,.cls-20{stroke-width:0px;}.cls-2{fill:url(#Gradiente_sem_nome_8-7);}.cls-3{fill:url(#Gradiente_sem_nome_8-13);}.cls-4{fill:url(#Gradiente_sem_nome_8-4);}.cls-5{fill:url(#Gradiente_sem_nome_8-8);}.cls-6{fill:url(#Gradiente_sem_nome_8-19);}.cls-7{fill:url(#Gradiente_sem_nome_8-10);}.cls-8{fill:url(#Gradiente_sem_nome_8-17);}.cls-9{fill:url(#Gradiente_sem_nome_8-11);}.cls-10{fill:url(#Gradiente_sem_nome_8-18);}.cls-11{fill:url(#Gradiente_sem_nome_8-14);}.cls-12{fill:url(#Gradiente_sem_nome_8-15);}.cls-13{fill:url(#Gradiente_sem_nome_8-6);}.cls-14{fill:url(#Gradiente_sem_nome_8-9);}.cls-15{fill:url(#Gradiente_sem_nome_8-12);}.cls-16{fill:url(#Gradiente_sem_nome_8-2);}.cls-17{fill:url(#Gradiente_sem_nome_8-20);}.cls-18{fill:url(#Gradiente_sem_nome_8);}.cls-19{fill:url(#Gradiente_sem_nome_8-5);}.cls-20{fill:url(#Gradiente_sem_nome_8-3);}</style><linearGradient id="Gradiente_sem_nome_8" x1="-6.05" y1="24.48" x2="45.71" y2="2.43" gradientUnits="userSpaceOnUse"><stop offset="0" stop-color="#e05928"/><stop offset="1" stop-color="#6228e1"/></linearGradient><linearGradient id="Gradiente_sem_nome_8-2" x1="-4.18" y1="28.86" x2="47.57" y2="6.81" xlink:href="#Gradiente_sem_nome_8"/><linearGradient id="Gradiente_sem_nome_8-3" x1="-2.44" y1="32.96" x2="49.32" y2="10.91" xlink:href="#Gradiente_sem_nome_8"/><linearGradient id="Gradiente_sem_nome_8-4" x1="-.28" y1="38.03" x2="51.48" y2="15.97" xlink:href="#Gradiente_sem_nome_8"/><linearGradient id="Gradiente_sem_nome_8-5" x1="-6.4" y1="23.67" x2="45.36" y2="1.61" xlink:href="#Gradiente_sem_nome_8"/><linearGradient id="Gradiente_sem_nome_8-6" x1="-4.26" y1="28.69" x2="47.5" y2="6.63" xlink:href="#Gradiente_sem_nome_8"/><linearGradient id="Gradiente_sem_nome_8-7" x1="-2.52" y1="32.76" x2="49.24" y2="10.71" xlink:href="#Gradiente_sem_nome_8"/><linearGradient id="Gradiente_sem_nome_8-8" x1="-.65" y1="37.16" x2="51.11" y2="15.1" xlink:href="#Gradiente_sem_nome_8"/><linearGradient id="Gradiente_sem_nome_8-9" x1="1.9" y1="43.15" x2="53.66" y2="21.09" xlink:href="#Gradiente_sem_nome_8"/><linearGradient id="Gradiente_sem_nome_8-10" x1="-4.44" y1="28.26" x2="47.32" y2="6.21" xlink:href="#Gradiente_sem_nome_8"/><linearGradient id="Gradiente_sem_nome_8-11" x1="-2.57" y1="32.65" x2="49.19" y2="10.59" xlink:href="#Gradiente_sem_nome_8"/><linearGradient id="Gradiente_sem_nome_8-12" x1="-.82" y1="36.74" x2="50.93" y2="14.69" xlink:href="#Gradiente_sem_nome_8"/><linearGradient id="Gradiente_sem_nome_8-13" x1="1.34" y1="41.81" x2="53.09" y2="19.75" xlink:href="#Gradiente_sem_nome_8"/><linearGradient id="Gradiente_sem_nome_8-14" x1="3.27" y1="46.34" x2="55.02" y2="24.29" xlink:href="#Gradiente_sem_nome_8"/><linearGradient id="Gradiente_sem_nome_8-15" x1="-4.28" y1="28.63" x2="47.48" y2="6.58" xlink:href="#Gradiente_sem_nome_8"/><linearGradient id="Gradiente_sem_nome_8-16" x1="-3.23" y1="31.09" x2="48.52" y2="9.03" xlink:href="#Gradiente_sem_nome_8"/><linearGradient id="Gradiente_sem_nome_8-17" x1="-1.09" y1="36.11" x2="50.66" y2="14.05" xlink:href="#Gradiente_sem_nome_8"/><linearGradient id="Gradiente_sem_nome_8-18" x1=".64" y1="40.18" x2="52.4" y2="18.13" xlink:href="#Gradiente_sem_nome_8"/><linearGradient id="Gradiente_sem_nome_8-19" x1="2.52" y1="44.58" x2="54.27" y2="22.52" xlink:href="#Gradiente_sem_nome_8"/><linearGradient id="Gradiente_sem_nome_8-20" x1="5.07" y1="50.57" x2="56.82" y2="28.51" xlink:href="#Gradiente_sem_nome_8"/></defs><g id="Camada_1-2"><path class="cls-18" d="M32.6,8.37c-1.32-.52-1.96-.82-3.14-1.59-.73,1.19-1.1,1.79-1.83,2.99,1.17.77,1.81,1.07,3.14,1.59.73-1.19,1.1-1.79,1.83-2.99Z"/><path class="cls-16" d="M39.56,10.31c-1.45-.33-2.17-.48-3.59-.86-.73,1.19-1.1,1.79-1.83,2.99,1.41.38,2.14.53,3.59.86.73-1.19,1.1-1.79,1.83-2.99Z"/><path class="cls-20" d="M46.58,12.25c-1.33-.52-2.02-.72-3.44-1.09-.73,1.19-1.1,1.79-1.83,2.99,1.42.37,2.11.57,3.44,1.09.73-1.19,1.1-1.79,1.83-2.99Z"/><path class="cls-4" d="M50.62,19.18c.73-1.19,1.1-1.79,1.83-2.99-.96-1.11-1.51-1.56-2.68-2.33-.73,1.19-1.1,1.79-1.83,2.99,1.17.77,1.72,1.22,2.68,2.33Z"/><path class="cls-19" d="M24.93,7.48c-.73,1.19-1.1,1.79-1.83,2.99.96,1.11,1.51,1.56,2.68,2.33.73-1.19,1.1-1.79,1.83-2.99-1.17-.77-1.72-1.22-2.68-2.33Z"/><path class="cls-13" d="M34.17,12.49c-1.41-.37-2.11-.58-3.44-1.1-.73,1.19-1.1,1.79-1.83,2.99,1.32.52,2.02.73,3.44,1.1.73-1.19,1.1-1.79,1.83-2.99Z"/><path class="cls-2" d="M35.86,16.32c1.45.33,2.17.48,3.59.85.73-1.19,1.1-1.79,1.83-2.99-1.42-.37-2.14-.53-3.59-.85-.73,1.19-1.1,1.79-1.83,2.99Z"/><path class="cls-5" d="M42.87,18.26c1.33.52,1.97.82,3.14,1.58.73-1.19,1.1-1.79,1.83-2.99-1.18-.76-1.82-1.06-3.14-1.58-.73,1.19-1.1,1.79-1.83,2.99Z"/><path class="cls-14" d="M50.58,19.2c-.73,1.19-1.1,1.79-1.83,2.99.96,1.11,1.39,1.75,2.08,3.3.73-1.19,1.1-1.79,1.83-2.99-.69-1.55-1.12-2.2-2.08-3.3Z"/><path class="cls-7" d="M23.91,15.82c1.17.77,1.81,1.07,3.14,1.59.73-1.19,1.1-1.79,1.83-2.99-1.32-.52-1.96-.82-3.14-1.59-.73,1.19-1.1,1.79-1.83,2.99Z"/><path class="cls-9" d="M35.85,16.36c-1.45-.33-2.17-.48-3.59-.86-.73,1.19-1.1,1.79-1.83,2.99,1.41.38,2.14.53,3.59.86.73-1.19,1.1-1.79,1.83-2.99Z"/><path class="cls-15" d="M37.58,20.2c1.42.37,2.11.57,3.44,1.09.73-1.19,1.1-1.79,1.83-2.99-1.33-.52-2.02-.72-3.44-1.09-.73,1.19-1.1,1.79-1.83,2.99Z"/><path class="cls-3" d="M44.22,22.9c1.17.77,1.72,1.22,2.68,2.33.73-1.19,1.1-1.79,1.83-2.99-.96-1.11-1.51-1.56-2.68-2.33-.73,1.19-1.1,1.79-1.83,2.99Z"/><path class="cls-11" d="M45.15,28.06c-.96-1.1-1.5-1.55-2.67-2.31-.73,1.19-1.1,1.79-1.83,2.99,1.17.77,1.72,1.22,2.68,2.33.69-1.12,1.07-1.74,1.72-2.8.95,1.1,1.38,1.75,2.07,3.29.73-1.19,1.1-1.79,1.83-2.99-.69-1.55-1.12-2.19-2.08-3.3-.69,1.12-1.07,1.74-1.72,2.8Z"/><path class="cls-12" d="M37.45,27.11c.69-1.12,1.07-1.74,1.72-2.8,1.32.51,1.96.81,3.13,1.57.73-1.19,1.1-1.79,1.83-2.99-1.18-.76-1.82-1.06-3.14-1.58-.69,1.12-1.07,1.74-1.72,2.8-1.32-.51-2.02-.72-3.43-1.09.65-1.06,1.03-1.67,1.72-2.8-1.42-.37-2.14-.53-3.59-.85-.69,1.12-1.07,1.74-1.72,2.8-1.42-.32-2.15-.48-3.52-.84.65-1.06,1.03-1.67,1.72-2.8-1.41-.37-2.11-.58-3.44-1.1-.69,1.12-1.07,1.74-1.72,2.8-1.31-.52-1.95-.82-3.12-1.58-.02.03-.03.05-.05.08.69-1.12,1.06-1.72,1.77-2.88-1.17-.77-1.72-1.22-2.68-2.33-.69,1.12-1.07,1.74-1.72,2.8-.92-1.06-1.35-1.71-1.99-3.12l1.74-2.84c.64,1.42,1.08,2.07,2,3.14.73-1.19,1.1-1.79,1.83-2.99-.92-1.06-1.36-1.72-2-3.14l1.89-3.07c.64,1.42,1.08,2.07,2,3.14.73-1.19,1.1-1.79,1.83-2.99-.92-1.06-1.36-1.72-2-3.14l.04-.07-.11-.07s0-.02-.01-.03c0,0,0,0,0,.01l-1.92-1.18L0,37.09l2.05,1.26,13.61-22.15c.64,1.42,1.08,2.07,2,3.14.69-1.12,1.07-1.74,1.72-2.8.95,1.1,1.5,1.55,2.67,2.31-.65,1.06-1.03,1.67-1.72,2.8,1.17.77,1.81,1.07,3.14,1.59.69-1.12,1.07-1.74,1.72-2.8,1.3.51,2,.72,3.38,1.08-.65,1.06-1.03,1.67-1.72,2.8,1.41.38,2.14.53,3.59.86.69-1.12,1.07-1.74,1.72-2.8,1.43.32,2.16.48,3.57.85-.65,1.06-1.03,1.67-1.72,2.8,1.42.37,2.11.57,3.44,1.09Z"/><path class="cls-1" d="M17.63,19.36c-.73,1.19-1.1,1.79-1.83,2.99.96,1.11,1.51,1.56,2.68,2.33.73-1.19,1.1-1.79,1.83-2.99-1.17-.77-1.72-1.22-2.68-2.33Z"/><path class="cls-8" d="M21.6,26.26c1.32.52,2.02.73,3.44,1.1.73-1.19,1.1-1.79,1.83-2.99-1.41-.37-2.11-.58-3.44-1.1-.73,1.19-1.1,1.79-1.83,2.99Z"/><path class="cls-10" d="M28.56,28.2c1.45.33,2.17.48,3.59.85.73-1.19,1.1-1.79,1.83-2.99-1.42-.37-2.14-.53-3.59-.85-.73,1.19-1.1,1.79-1.83,2.99Z"/><path class="cls-6" d="M35.57,30.14c1.33.52,1.97.82,3.14,1.58.73-1.19,1.1-1.79,1.83-2.99-1.18-.76-1.82-1.06-3.14-1.58-.73,1.19-1.1,1.79-1.83,2.99Z"/><path class="cls-17" d="M41.45,34.07c.96,1.11,1.39,1.75,2.08,3.3.73-1.19,1.1-1.79,1.83-2.99-.69-1.55-1.12-2.19-2.08-3.3-.73,1.19-1.1,1.79-1.83,2.99Z"/></g></svg>