<?xml version="1.0" encoding="UTF-8"?><svg id="Camada_2" xmlns="http://www.w3.org/2000/svg" xmlns:xlink="http://www.w3.org/1999/xlink" viewBox="0 0 49.43 35.24"><defs><style>.cls-1{fill:url(#Gradiente_sem_nome_8-4);}.cls-1,.cls-2,.cls-3,.cls-4,.cls-5{stroke-width:0px;}.cls-2{fill:url(#Gradiente_sem_nome_8-2);}.cls-3{fill:url(#Gradiente_sem_nome_8);}.cls-4{fill:url(#Gradiente_sem_nome_8-5);}.cls-5{fill:url(#Gradiente_sem_nome_8-3);}</style><linearGradient id="Gradiente_sem_nome_8" x1="-11.22" y1="26.94" x2="47.26" y2="-2.47" gradientUnits="userSpaceOnUse"><stop offset="0" stop-color="#e05928"/><stop offset="1" stop-color="#6228e1"/></linearGradient><linearGradient id="Gradiente_sem_nome_8-2" x1="-10.01" y1="29.35" x2="48.48" y2="-.06" xlink:href="#Gradiente_sem_nome_8"/><linearGradient id="Gradiente_sem_nome_8-3" x1="-4.19" y1="40.91" x2="54.29" y2="11.5" xlink:href="#Gradiente_sem_nome_8"/><linearGradient id="Gradiente_sem_nome_8-4" x1="-5.4" y1="38.5" x2="53.08" y2="9.09" xlink:href="#Gradiente_sem_nome_8"/><linearGradient id="Gradiente_sem_nome_8-5" x1="-7.68" y1="33.98" x2="50.8" y2="4.57" xlink:href="#Gradiente_sem_nome_8"/></defs><g id="Camada_1-2"><path class="cls-3" d="M7.42,35.24C2.63,30.52,0,24.23,0,17.51S2.55,4.68,7.19.01l1.81,1.79C4.84,6,2.55,11.58,2.55,17.51s2.37,11.68,6.66,15.91l-1.79,1.81Z"/><path class="cls-2" d="M13.41,29.17c-2.95-3.16-4.58-7.3-4.58-11.66s1.54-8.28,4.35-11.42l1.9,1.7c-2.38,2.67-3.7,6.13-3.7,9.72s1.38,7.23,3.89,9.92l-1.86,1.74Z"/><path class="cls-5" d="M42.24,35.23l-1.81-1.79c4.16-4.19,6.46-9.77,6.46-15.71s-2.37-11.68-6.66-15.91l1.79-1.81c4.78,4.72,7.42,11.01,7.42,17.73s-2.55,12.83-7.19,17.5Z"/><path class="cls-1" d="M36.25,29.15l-1.9-1.7c2.38-2.67,3.7-6.13,3.7-9.72s-1.38-7.23-3.89-9.92l1.86-1.74c2.95,3.16,4.58,7.3,4.58,11.66s-1.54,8.28-4.35,11.42Z"/><path class="cls-4" d="M24.83,24.99c-4.06,0-7.36-3.3-7.36-7.36s3.3-7.36,7.36-7.36,7.36,3.3,7.36,7.36-3.3,7.36-7.36,7.36ZM24.83,12.83c-2.65,0-4.81,2.16-4.81,4.81s2.16,4.81,4.81,4.81,4.81-2.16,4.81-4.81-2.16-4.81-4.81-4.81Z"/></g></svg>