<?xml version="1.0" encoding="UTF-8"?><svg id="Camada_2" xmlns="http://www.w3.org/2000/svg" viewBox="0 0 36.58 36.66"><defs><style>.cls-1{fill:#fff;stroke-width:0px;}</style></defs><g id="Camada_1-2"><path class="cls-1" d="M28.01,23c-6.43-.66-13.01-.66-19.44,0-4.88.51-8.57,4.58-8.57,9.47v4.18h3.51v-4.18c0-3.09,2.33-5.66,5.41-5.98,6.19-.64,12.53-.64,18.72,0,3.09.32,5.42,2.89,5.42,5.98v4.19h3.51v-4.19c0-4.89-3.68-8.97-8.57-9.47Z"/><path class="cls-1" d="M18.29,20.06c5.53,0,10.03-4.5,10.03-10.03S23.82,0,18.29,0s-10.03,4.5-10.03,10.03,4.5,10.03,10.03,10.03ZM18.29,3.51c3.6,0,6.52,2.92,6.52,6.52s-2.92,6.52-6.52,6.52-6.52-2.92-6.52-6.52,2.92-6.52,6.52-6.52Z"/></g></svg>