<?xml version="1.0" encoding="UTF-8"?><svg id="Camada_2" xmlns="http://www.w3.org/2000/svg" xmlns:xlink="http://www.w3.org/1999/xlink" viewBox="0 0 48.6 32.83"><defs><style>.cls-1{fill:url(#Gradiente_sem_nome_8);stroke-width:0px;}</style><linearGradient id="Gradiente_sem_nome_8" x1="-.37" y1="33.26" x2="48.07" y2=".19" gradientUnits="userSpaceOnUse"><stop offset="0" stop-color="#e05928"/><stop offset="1" stop-color="#6228e1"/></linearGradient></defs><g id="Camada_1-2"><path class="cls-1" d="M0,0v32.83h48.6V0H0ZM46.14,20.95h-3.29v-9.09h3.29v9.09ZM24.33,21.85c-3,0-5.45-2.44-5.45-5.45s2.44-5.45,5.45-5.45,5.45,2.44,5.45,5.45-2.44,5.45-5.45,5.45ZM2.46,11.86h4.21v9.09H2.46v-9.09ZM2.46,23.41h6.67v-14.01H2.46V2.46h20.61v6.17c-3.76.61-6.65,3.85-6.65,7.78s2.89,7.17,6.65,7.78v6.19H2.46v-6.96ZM25.53,30.37v-6.18c3.79-.59,6.7-3.84,6.7-7.78s-2.92-7.2-6.7-7.78V2.46h20.61v6.94h-5.75v14.01h5.75v6.96h-20.61Z"/></g></svg>